<svg width="549" height="419" viewBox="0 0 549 419" fill="none" xmlns="http://www.w3.org/2000/svg">
<path d="M78.4209 247.41C97.6339 247.41 113.209 231.829 113.209 212.609C113.209 193.39 97.6339 177.809 78.4209 177.809C59.208 177.809 43.6328 193.39 43.6328 212.609C43.6328 231.829 59.208 247.41 78.4209 247.41Z" fill="#FFAC24"/>
<path d="M149.663 409.178H149.628C148.403 409.176 147.229 408.689 146.362 407.823C145.496 406.956 145.009 405.781 145.008 404.556V133.221C145.009 131.995 145.496 130.821 146.362 129.954C147.229 129.088 148.403 128.6 149.628 128.599H377.925C379.15 128.6 380.324 129.088 381.19 129.954C382.057 130.82 382.544 131.995 382.545 133.221V344.199C382.544 345.418 382.062 346.587 381.203 347.453C380.345 348.318 379.179 348.81 377.961 348.82L149.663 409.178Z" fill="#F2F2F2"/>
<path d="M318.405 90.2638H212.41V28.8192C212.411 27.5217 212.927 26.2778 213.844 25.3604C214.761 24.4429 216.005 23.9268 217.302 23.9254H313.513C314.81 23.9268 316.053 24.4429 316.97 25.3604C317.887 26.2778 318.403 27.5217 318.405 28.8192V90.2638ZM213.497 89.1763H317.317V28.8192C317.316 27.81 316.915 26.8425 316.202 26.129C315.488 25.4154 314.521 25.014 313.513 25.0129H217.302C216.293 25.014 215.326 25.4154 214.612 26.129C213.899 26.8425 213.498 27.81 213.497 28.8192V89.1763Z" fill="#3F3D56"/>
<path d="M242.577 47.3069H288.237C289.39 47.3069 290.496 47.7653 291.312 48.5811C292.127 49.3968 292.585 50.5033 292.585 51.657V116.908H238.229V51.657C238.229 50.5033 238.687 49.3968 239.503 48.5811C240.318 47.7653 241.424 47.3069 242.577 47.3069Z" fill="#E6E6E6"/>
<path d="M251.546 25.0129H229.26V2.71879C229.261 1.99797 229.547 1.30692 230.057 0.797226C230.566 0.287532 231.257 0.000824637 231.978 0H248.828C249.549 0.000824637 250.24 0.287532 250.749 0.797226C251.259 1.30692 251.545 1.99797 251.546 2.71879V25.0129ZM230.347 23.9253H250.459V2.71879C250.459 2.28629 250.287 1.87165 249.981 1.56583C249.675 1.26001 249.261 1.08799 248.828 1.08752H231.978C231.545 1.08799 231.131 1.26001 230.825 1.56583C230.52 1.87165 230.348 2.28629 230.347 2.71879V23.9253Z" fill="#3F3D56"/>
<path d="M434.678 352.812C434.462 352.812 434.251 352.812 434.034 352.806C420.587 352.658 407.656 347.602 397.673 338.589C397.303 338.253 396.937 337.912 396.574 337.567L396.406 337.406V233.194L396.458 233.084C396.818 232.321 397.183 231.568 397.548 230.816C408.854 207.854 422.04 195.209 434.678 195.209C452.904 195.209 467.039 220.219 473.842 235.126C483.303 255.856 489.91 281.544 489.91 297.593C489.906 312.133 484.17 326.085 473.949 336.421C463.727 346.758 449.843 352.645 435.309 352.807C435.106 352.812 434.89 352.812 434.678 352.812ZM397.493 336.94C397.794 337.225 398.098 337.506 398.403 337.783C408.192 346.619 420.869 351.575 434.054 351.719C434.274 351.724 434.482 351.718 434.693 351.724C434.89 351.724 435.092 351.724 435.29 351.719C464.811 351.392 488.823 327.111 488.823 297.593C488.823 281.683 482.256 256.181 472.853 235.578C466.158 220.907 452.296 196.297 434.678 196.297C422.476 196.297 409.637 208.726 398.524 231.294C398.18 232.004 397.834 232.716 397.493 233.438L397.493 336.94Z" fill="#3F3D56"/>
<path d="M434.676 418.741C434.51 418.741 434.351 418.675 434.234 418.558C434.116 418.441 434.051 418.282 434.051 418.116V290.404C434.05 290.322 434.066 290.24 434.097 290.164C434.128 290.087 434.174 290.018 434.232 289.96C434.291 289.901 434.36 289.855 434.436 289.823C434.512 289.791 434.593 289.775 434.676 289.775C434.758 289.775 434.84 289.791 434.916 289.823C434.992 289.855 435.061 289.901 435.119 289.96C435.178 290.018 435.224 290.087 435.255 290.164C435.286 290.24 435.302 290.322 435.301 290.404V418.116C435.301 418.282 435.235 418.441 435.118 418.558C435.001 418.675 434.842 418.741 434.676 418.741Z" fill="#CCCCCC"/>
<path d="M110.168 418.741C110.002 418.741 109.843 418.675 109.726 418.558C109.609 418.441 109.543 418.282 109.543 418.116V290.404C109.542 290.322 109.558 290.24 109.589 290.164C109.62 290.087 109.666 290.018 109.724 289.96C109.783 289.901 109.852 289.855 109.928 289.823C110.004 289.791 110.086 289.775 110.168 289.775C110.25 289.775 110.332 289.791 110.408 289.823C110.484 289.855 110.553 289.901 110.611 289.96C110.67 290.018 110.716 290.087 110.747 290.164C110.778 290.24 110.794 290.322 110.793 290.404V418.116C110.793 418.282 110.727 418.441 110.61 418.558C110.493 418.675 110.334 418.741 110.168 418.741Z" fill="#CCCCCC"/>
<path d="M434.676 314.265C434.587 314.265 434.498 314.246 434.416 314.209C434.335 314.172 434.262 314.117 434.203 314.05L402.751 277.765C402.642 277.639 402.588 277.476 402.6 277.311C402.612 277.145 402.689 276.991 402.814 276.883C402.94 276.774 403.103 276.72 403.268 276.731C403.433 276.743 403.587 276.82 403.696 276.945L435.148 313.23C435.227 313.32 435.278 313.432 435.295 313.55C435.312 313.669 435.295 313.79 435.245 313.899C435.195 314.008 435.115 314.101 435.014 314.166C434.913 314.231 434.796 314.265 434.676 314.265V314.265Z" fill="#CCCCCC"/>
<path d="M434.676 335.206C434.552 335.206 434.431 335.169 434.328 335.1C434.226 335.032 434.145 334.934 434.098 334.82C434.051 334.705 434.038 334.58 434.063 334.458C434.087 334.337 434.146 334.226 434.234 334.138L452.106 316.259C452.223 316.143 452.382 316.077 452.547 316.077C452.713 316.078 452.872 316.144 452.989 316.261C453.106 316.378 453.172 316.536 453.172 316.702C453.172 316.868 453.107 317.027 452.99 317.144L435.118 335.023C435.06 335.081 434.991 335.127 434.915 335.159C434.839 335.19 434.758 335.206 434.676 335.206Z" fill="#CCCCCC"/>
<path d="M492.537 419H445.787V418.456C445.786 415.385 446.389 412.343 447.563 409.505C448.737 406.666 450.459 404.087 452.63 401.915C454.8 399.742 457.378 398.019 460.214 396.843C463.051 395.667 466.091 395.062 469.162 395.062C472.233 395.062 475.273 395.667 478.11 396.843C480.946 398.019 483.524 399.742 485.694 401.915C487.865 404.087 489.587 406.666 490.761 409.505C491.935 412.343 492.538 415.385 492.537 418.456L492.537 419ZM446.881 417.913H491.443C491.301 412.095 488.891 406.564 484.728 402.5C480.565 398.436 474.979 396.161 469.162 396.161C463.345 396.161 457.759 398.436 453.596 402.5C449.433 406.564 447.023 412.095 446.881 417.913H446.881Z" fill="#3F3D56"/>
<path d="M469.162 405.185C468.998 405.185 468.841 405.25 468.726 405.366C468.61 405.481 468.545 405.638 468.545 405.802V412.359L462.159 406.877C462.098 406.824 462.027 406.783 461.95 406.758C461.872 406.732 461.791 406.723 461.71 406.729C461.629 406.735 461.55 406.757 461.478 406.793C461.405 406.83 461.341 406.88 461.288 406.942C461.235 407.004 461.195 407.075 461.17 407.152C461.144 407.229 461.135 407.311 461.141 407.392C461.147 407.473 461.169 407.552 461.206 407.624C461.243 407.696 461.294 407.761 461.355 407.814L468.545 413.986V417.839C468.545 417.92 468.56 418.001 468.591 418.076C468.622 418.151 468.668 418.219 468.725 418.277C468.782 418.334 468.85 418.38 468.925 418.411C469 418.442 469.081 418.458 469.162 418.458C469.243 418.458 469.324 418.442 469.399 418.411C469.474 418.38 469.542 418.334 469.599 418.277C469.656 418.219 469.702 418.151 469.733 418.076C469.764 418.001 469.779 417.92 469.779 417.839V405.802C469.779 405.638 469.714 405.481 469.598 405.366C469.483 405.25 469.326 405.185 469.162 405.185Z" fill="#3F3D56"/>
<path d="M100.627 419H53.8774V418.456C53.876 415.385 54.4795 412.343 55.6535 409.505C56.8275 406.666 58.5491 404.087 60.7197 401.915C62.8904 399.742 65.4677 398.019 68.3044 396.843C71.1411 395.667 74.1816 395.062 77.2521 395.062C80.3227 395.062 83.3631 395.667 86.1998 396.843C89.0365 398.019 91.6138 399.742 93.7845 401.915C95.9552 404.087 97.6767 406.666 98.8507 409.505C100.025 412.343 100.628 415.385 100.627 418.456L100.627 419ZM54.9711 417.913H99.5331C99.3913 412.095 96.9816 406.564 92.8185 402.5C88.6555 398.436 83.069 396.161 77.2521 396.161C71.4352 396.161 65.8488 398.436 61.6857 402.5C57.5227 406.564 55.1129 412.095 54.9711 417.913H54.9711Z" fill="#3F3D56"/>
<path d="M77.2521 405.185C77.0884 405.185 76.9315 405.25 76.8158 405.366C76.7 405.481 76.635 405.638 76.635 405.802V412.359L70.2495 406.877C70.188 406.824 70.1167 406.783 70.0396 406.758C69.9625 406.732 69.8812 406.723 69.8002 406.729C69.7193 406.735 69.6404 406.757 69.5679 406.793C69.4955 406.83 69.431 406.88 69.3781 406.942C69.3253 407.004 69.2851 407.075 69.2598 407.152C69.2346 407.229 69.2248 407.311 69.2311 407.392C69.2373 407.473 69.2595 407.552 69.2963 407.624C69.3331 407.696 69.3838 407.761 69.4455 407.814L76.635 413.986V417.839C76.6348 417.92 76.6505 418.001 76.6814 418.076C76.7123 418.151 76.7578 418.219 76.8151 418.277C76.8724 418.334 76.9405 418.38 77.0155 418.411C77.0905 418.442 77.1709 418.458 77.2521 418.458C77.3333 418.458 77.4137 418.442 77.4887 418.411C77.5636 418.38 77.6318 418.334 77.6891 418.277C77.7464 418.219 77.7918 418.151 77.8227 418.076C77.8536 418.001 77.8694 417.92 77.8692 417.839V405.802C77.8692 405.638 77.8041 405.481 77.6884 405.366C77.5727 405.25 77.4157 405.185 77.2521 405.185Z" fill="#3F3D56"/>
<path d="M110.714 352.812C110.498 352.812 110.287 352.812 110.07 352.806C95.538 352.642 81.6565 346.753 71.4366 336.417C61.2166 326.081 55.4822 312.131 55.4771 297.593C55.4771 281.543 62.0847 255.856 71.5457 235.126C78.3495 220.219 92.4855 195.209 110.714 195.209C118.222 195.209 125.783 199.49 133.186 207.934C133.553 208.35 133.921 208.779 134.284 209.218L134.408 209.369V347.476L134.101 347.624C133.736 347.802 133.364 347.968 132.993 348.129C126.172 351.149 118.805 352.741 111.345 352.807C111.142 352.812 110.925 352.812 110.714 352.812ZM110.714 196.297C93.0935 196.297 79.2301 220.908 72.5346 235.578C63.1315 256.181 56.5642 281.683 56.5642 297.593C56.5642 327.106 80.5757 351.386 110.09 351.719C110.31 351.725 110.515 351.726 110.729 351.724C110.926 351.724 111.128 351.724 111.325 351.719C118.641 351.655 125.867 350.094 132.558 347.133C132.814 347.021 133.069 346.909 133.321 346.791V209.76C133.006 209.382 132.688 209.013 132.37 208.651C125.181 200.453 117.896 196.297 110.714 196.297Z" fill="#3F3D56"/>
<path d="M110.712 314.265C110.622 314.265 110.534 314.246 110.452 314.209C110.37 314.172 110.298 314.117 110.239 314.05L78.7864 277.765C78.6781 277.639 78.624 277.476 78.6359 277.311C78.6478 277.145 78.7248 276.991 78.85 276.883C78.9751 276.774 79.1382 276.72 79.3035 276.731C79.4688 276.743 79.6227 276.82 79.7315 276.945L111.184 313.23C111.263 313.32 111.313 313.432 111.331 313.55C111.348 313.669 111.33 313.79 111.28 313.899C111.231 314.008 111.151 314.101 111.05 314.166C110.949 314.231 110.832 314.265 110.712 314.265V314.265Z" fill="#CCCCCC"/>
<path d="M110.712 335.206C110.588 335.206 110.467 335.169 110.364 335.1C110.261 335.032 110.181 334.934 110.134 334.82C110.087 334.705 110.074 334.58 110.098 334.458C110.122 334.337 110.182 334.226 110.269 334.138L128.141 316.259C128.259 316.143 128.418 316.077 128.583 316.077C128.749 316.078 128.907 316.144 129.025 316.261C129.142 316.378 129.207 316.536 129.208 316.702C129.208 316.868 129.142 317.027 129.026 317.144L111.154 335.023C111.096 335.081 111.027 335.127 110.951 335.159C110.875 335.19 110.794 335.206 110.712 335.206Z" fill="#CCCCCC"/>
<path d="M159.825 94.6139L160.227 95.4077C160.406 95.7503 160.499 96.1308 160.499 96.517V117.995H179.524V96.517C179.524 96.1308 179.617 95.7503 179.796 95.4077L180.198 94.6139H159.825ZM178.437 96.517V116.908H161.586V96.517C161.587 96.2422 161.554 95.9683 161.488 95.7014H178.535C178.469 95.9683 178.436 96.2422 178.437 96.517ZM183.742 94.6139L184.144 95.4077C184.322 95.7503 184.416 96.1308 184.416 96.517V117.995H203.441V96.517C203.441 96.1308 203.534 95.7503 203.712 95.4077L204.115 94.6139H183.742ZM202.354 96.517V116.908H185.503V96.517C185.503 96.2422 185.471 95.9683 185.405 95.7014H202.452C202.386 95.9683 202.353 96.2422 202.354 96.517ZM207.659 94.6139L208.061 95.4077C208.239 95.7503 208.333 96.1308 208.333 96.517V117.995H227.358V96.517C227.358 96.1308 227.451 95.7503 227.629 95.4077L228.032 94.6139H207.659ZM226.27 96.517V116.908H209.42V96.517C209.42 96.2422 209.387 95.9683 209.322 95.7014H226.368C226.303 95.9683 226.27 96.2422 226.27 96.517ZM231.575 94.6139L231.978 95.4077C232.156 95.7503 232.249 96.1308 232.25 96.517V117.995H251.274V96.517C251.275 96.1308 251.368 95.7503 251.546 95.4077L251.949 94.6139H231.575ZM250.187 96.517V116.908H233.337V96.517C233.337 96.2422 233.304 95.9683 233.239 95.7014H250.285C250.22 95.9683 250.187 96.2422 250.187 96.517ZM255.492 94.6139L255.895 95.4077C256.073 95.7503 256.166 96.1308 256.166 96.517V117.995H275.191V96.517C275.191 96.1308 275.285 95.7503 275.463 95.4077L275.865 94.6139H255.492ZM274.104 96.517V116.908H257.254V96.517C257.254 96.2422 257.221 95.9683 257.156 95.7014H274.202C274.137 95.9683 274.104 96.2422 274.104 96.517ZM279.409 94.6139L279.812 95.4077C279.99 95.7503 280.083 96.1308 280.083 96.517V117.995H299.108V96.517C299.108 96.1308 299.202 95.7503 299.38 95.4077L299.782 94.6139H279.409ZM298.021 96.517V116.908H281.17V96.517C281.171 96.2422 281.138 95.9683 281.072 95.7014H298.119C298.053 95.9683 298.021 96.2422 298.021 96.517ZM303.326 94.6139L303.728 95.4077C303.907 95.7503 304 96.1308 304 96.517V117.995H323.025V96.517C323.025 96.1308 323.118 95.7503 323.297 95.4077L323.699 94.6139H303.326ZM321.938 96.517V116.908H305.087V96.517C305.088 96.2422 305.055 95.9683 304.989 95.7014H322.036C321.97 95.9683 321.937 96.2422 321.938 96.517ZM327.243 94.6139L327.645 95.4077C327.823 95.7503 327.917 96.1308 327.917 96.517V117.995H346.942V96.517C346.942 96.1308 347.035 95.7503 347.213 95.4077L347.616 94.6139H327.243ZM345.855 96.517V116.908H329.004V96.517C329.004 96.2422 328.971 95.9683 328.906 95.7014H345.952C345.887 95.9683 345.854 96.2422 345.855 96.517ZM351.16 94.6139L351.562 95.4077C351.74 95.7503 351.834 96.1308 351.834 96.517V117.995H370.859V96.517C370.859 96.1308 370.952 95.7503 371.13 95.4077L371.533 94.6139H351.16ZM369.771 96.517V116.908H352.921V96.517C352.921 96.2422 352.888 95.9683 352.823 95.7014H369.869C369.804 95.9683 369.771 96.2422 369.771 96.517ZM351.16 94.6139L351.562 95.4077C351.74 95.7503 351.834 96.1308 351.834 96.517V117.995H370.859V96.517C370.859 96.1308 370.952 95.7503 371.13 95.4077L371.533 94.6139H351.16ZM369.771 96.517V116.908H352.921V96.517C352.921 96.2422 352.888 95.9683 352.823 95.7014H369.869C369.804 95.9683 369.771 96.2422 369.771 96.517ZM327.243 94.6139L327.645 95.4077C327.823 95.7503 327.917 96.1308 327.917 96.517V117.995H346.942V96.517C346.942 96.1308 347.035 95.7503 347.213 95.4077L347.616 94.6139H327.243ZM345.855 96.517V116.908H329.004V96.517C329.004 96.2422 328.971 95.9683 328.906 95.7014H345.952C345.887 95.9683 345.854 96.2422 345.855 96.517ZM303.326 94.6139L303.728 95.4077C303.907 95.7503 304 96.1308 304 96.517V117.995H323.025V96.517C323.025 96.1308 323.118 95.7503 323.297 95.4077L323.699 94.6139H303.326ZM321.938 96.517V116.908H305.087V96.517C305.088 96.2422 305.055 95.9683 304.989 95.7014H322.036C321.97 95.9683 321.937 96.2422 321.938 96.517ZM279.409 94.6139L279.812 95.4077C279.99 95.7503 280.083 96.1308 280.083 96.517V117.995H299.108V96.517C299.108 96.1308 299.202 95.7503 299.38 95.4077L299.782 94.6139H279.409ZM298.021 96.517V116.908H281.17V96.517C281.171 96.2422 281.138 95.9683 281.072 95.7014H298.119C298.053 95.9683 298.021 96.2422 298.021 96.517ZM255.492 94.6139L255.895 95.4077C256.073 95.7503 256.166 96.1308 256.166 96.517V117.995H275.191V96.517C275.191 96.1308 275.285 95.7503 275.463 95.4077L275.865 94.6139H255.492ZM274.104 96.517V116.908H257.254V96.517C257.254 96.2422 257.221 95.9683 257.156 95.7014H274.202C274.137 95.9683 274.104 96.2422 274.104 96.517ZM231.575 94.6139L231.978 95.4077C232.156 95.7503 232.249 96.1308 232.25 96.517V117.995H251.274V96.517C251.275 96.1308 251.368 95.7503 251.546 95.4077L251.949 94.6139H231.575ZM250.187 96.517V116.908H233.337V96.517C233.337 96.2422 233.304 95.9683 233.239 95.7014H250.285C250.22 95.9683 250.187 96.2422 250.187 96.517ZM207.659 94.6139L208.061 95.4077C208.239 95.7503 208.333 96.1308 208.333 96.517V117.995H227.358V96.517C227.358 96.1308 227.451 95.7503 227.629 95.4077L228.032 94.6139H207.659ZM226.27 96.517V116.908H209.42V96.517C209.42 96.2422 209.387 95.9683 209.322 95.7014H226.368C226.303 95.9683 226.27 96.2422 226.27 96.517ZM183.742 94.6139L184.144 95.4077C184.322 95.7503 184.416 96.1308 184.416 96.517V117.995H203.441V96.517C203.441 96.1308 203.534 95.7503 203.712 95.4077L204.115 94.6139H183.742ZM202.354 96.517V116.908H185.503V96.517C185.503 96.2422 185.471 95.9683 185.405 95.7014H202.452C202.386 95.9683 202.353 96.2422 202.354 96.517ZM159.825 94.6139L160.227 95.4077C160.406 95.7503 160.499 96.1308 160.499 96.517V117.995H179.524V96.517C179.524 96.1308 179.617 95.7503 179.796 95.4077L180.198 94.6139H159.825ZM178.437 96.517V116.908H161.586V96.517C161.587 96.2422 161.554 95.9683 161.488 95.7014H178.535C178.469 95.9683 178.436 96.2422 178.437 96.517ZM351.16 94.6139L351.562 95.4077C351.74 95.7503 351.834 96.1308 351.834 96.517V117.995H370.859V96.517C370.859 96.1308 370.952 95.7503 371.13 95.4077L371.533 94.6139H351.16ZM369.771 96.517V116.908H352.921V96.517C352.921 96.2422 352.888 95.9683 352.823 95.7014H369.869C369.804 95.9683 369.771 96.2422 369.771 96.517ZM327.243 94.6139L327.645 95.4077C327.823 95.7503 327.917 96.1308 327.917 96.517V117.995H346.942V96.517C346.942 96.1308 347.035 95.7503 347.213 95.4077L347.616 94.6139H327.243ZM345.855 96.517V116.908H329.004V96.517C329.004 96.2422 328.971 95.9683 328.906 95.7014H345.952C345.887 95.9683 345.854 96.2422 345.855 96.517ZM303.326 94.6139L303.728 95.4077C303.907 95.7503 304 96.1308 304 96.517V117.995H323.025V96.517C323.025 96.1308 323.118 95.7503 323.297 95.4077L323.699 94.6139H303.326ZM321.938 96.517V116.908H305.087V96.517C305.088 96.2422 305.055 95.9683 304.989 95.7014H322.036C321.97 95.9683 321.937 96.2422 321.938 96.517ZM279.409 94.6139L279.812 95.4077C279.99 95.7503 280.083 96.1308 280.083 96.517V117.995H299.108V96.517C299.108 96.1308 299.202 95.7503 299.38 95.4077L299.782 94.6139H279.409ZM298.021 96.517V116.908H281.17V96.517C281.171 96.2422 281.138 95.9683 281.072 95.7014H298.119C298.053 95.9683 298.021 96.2422 298.021 96.517ZM255.492 94.6139L255.895 95.4077C256.073 95.7503 256.166 96.1308 256.166 96.517V117.995H275.191V96.517C275.191 96.1308 275.285 95.7503 275.463 95.4077L275.865 94.6139H255.492ZM274.104 96.517V116.908H257.254V96.517C257.254 96.2422 257.221 95.9683 257.156 95.7014H274.202C274.137 95.9683 274.104 96.2422 274.104 96.517ZM231.575 94.6139L231.978 95.4077C232.156 95.7503 232.249 96.1308 232.25 96.517V117.995H251.274V96.517C251.275 96.1308 251.368 95.7503 251.546 95.4077L251.949 94.6139H231.575ZM250.187 96.517V116.908H233.337V96.517C233.337 96.2422 233.304 95.9683 233.239 95.7014H250.285C250.22 95.9683 250.187 96.2422 250.187 96.517ZM207.659 94.6139L208.061 95.4077C208.239 95.7503 208.333 96.1308 208.333 96.517V117.995H227.358V96.517C227.358 96.1308 227.451 95.7503 227.629 95.4077L228.032 94.6139H207.659ZM226.27 96.517V116.908H209.42V96.517C209.42 96.2422 209.387 95.9683 209.322 95.7014H226.368C226.303 95.9683 226.27 96.2422 226.27 96.517ZM183.742 94.6139L184.144 95.4077C184.322 95.7503 184.416 96.1308 184.416 96.517V117.995H203.441V96.517C203.441 96.1308 203.534 95.7503 203.712 95.4077L204.115 94.6139H183.742ZM202.354 96.517V116.908H185.503V96.517C185.503 96.2422 185.471 95.9683 185.405 95.7014H202.452C202.386 95.9683 202.353 96.2422 202.354 96.517ZM159.825 94.6139L160.227 95.4077C160.406 95.7503 160.499 96.1308 160.499 96.517V117.995H179.524V96.517C179.524 96.1308 179.617 95.7503 179.796 95.4077L180.198 94.6139H159.825ZM178.437 96.517V116.908H161.586V96.517C161.587 96.2422 161.554 95.9683 161.488 95.7014H178.535C178.469 95.9683 178.436 96.2422 178.437 96.517ZM351.16 94.6139L351.562 95.4077C351.74 95.7503 351.834 96.1308 351.834 96.517V117.995H370.859V96.517C370.859 96.1308 370.952 95.7503 371.13 95.4077L371.533 94.6139H351.16ZM369.771 96.517V116.908H352.921V96.517C352.921 96.2422 352.888 95.9683 352.823 95.7014H369.869C369.804 95.9683 369.771 96.2422 369.771 96.517ZM327.243 94.6139L327.645 95.4077C327.823 95.7503 327.917 96.1308 327.917 96.517V117.995H346.942V96.517C346.942 96.1308 347.035 95.7503 347.213 95.4077L347.616 94.6139H327.243ZM345.855 96.517V116.908H329.004V96.517C329.004 96.2422 328.971 95.9683 328.906 95.7014H345.952C345.887 95.9683 345.854 96.2422 345.855 96.517ZM303.326 94.6139L303.728 95.4077C303.907 95.7503 304 96.1308 304 96.517V117.995H323.025V96.517C323.025 96.1308 323.118 95.7503 323.297 95.4077L323.699 94.6139H303.326ZM321.938 96.517V116.908H305.087V96.517C305.088 96.2422 305.055 95.9683 304.989 95.7014H322.036C321.97 95.9683 321.937 96.2422 321.938 96.517ZM279.409 94.6139L279.812 95.4077C279.99 95.7503 280.083 96.1308 280.083 96.517V117.995H299.108V96.517C299.108 96.1308 299.202 95.7503 299.38 95.4077L299.782 94.6139H279.409ZM298.021 96.517V116.908H281.17V96.517C281.171 96.2422 281.138 95.9683 281.072 95.7014H298.119C298.053 95.9683 298.021 96.2422 298.021 96.517ZM255.492 94.6139L255.895 95.4077C256.073 95.7503 256.166 96.1308 256.166 96.517V117.995H275.191V96.517C275.191 96.1308 275.285 95.7503 275.463 95.4077L275.865 94.6139H255.492ZM274.104 96.517V116.908H257.254V96.517C257.254 96.2422 257.221 95.9683 257.156 95.7014H274.202C274.137 95.9683 274.104 96.2422 274.104 96.517ZM231.575 94.6139L231.978 95.4077C232.156 95.7503 232.249 96.1308 232.25 96.517V117.995H251.274V96.517C251.275 96.1308 251.368 95.7503 251.546 95.4077L251.949 94.6139H231.575ZM250.187 96.517V116.908H233.337V96.517C233.337 96.2422 233.304 95.9683 233.239 95.7014H250.285C250.22 95.9683 250.187 96.2422 250.187 96.517ZM207.659 94.6139L208.061 95.4077C208.239 95.7503 208.333 96.1308 208.333 96.517V117.995H227.358V96.517C227.358 96.1308 227.451 95.7503 227.629 95.4077L228.032 94.6139H207.659ZM226.27 96.517V116.908H209.42V96.517C209.42 96.2422 209.387 95.9683 209.322 95.7014H226.368C226.303 95.9683 226.27 96.2422 226.27 96.517ZM183.742 94.6139L184.144 95.4077C184.322 95.7503 184.416 96.1308 184.416 96.517V117.995H203.441V96.517C203.441 96.1308 203.534 95.7503 203.712 95.4077L204.115 94.6139H183.742ZM202.354 96.517V116.908H185.503V96.517C185.503 96.2422 185.471 95.9683 185.405 95.7014H202.452C202.386 95.9683 202.353 96.2422 202.354 96.517ZM159.825 94.6139L160.227 95.4077C160.406 95.7503 160.499 96.1308 160.499 96.517V117.995H179.524V96.517C179.524 96.1308 179.617 95.7503 179.796 95.4077L180.198 94.6139H159.825ZM178.437 96.517V116.908H161.586V96.517C161.587 96.2422 161.554 95.9683 161.488 95.7014H178.535C178.469 95.9683 178.436 96.2422 178.437 96.517ZM351.16 94.6139L351.562 95.4077C351.74 95.7503 351.834 96.1308 351.834 96.517V117.995H370.859V96.517C370.859 96.1308 370.952 95.7503 371.13 95.4077L371.533 94.6139H351.16ZM369.771 96.517V116.908H352.921V96.517C352.921 96.2422 352.888 95.9683 352.823 95.7014H369.869C369.804 95.9683 369.771 96.2422 369.771 96.517ZM327.243 94.6139L327.645 95.4077C327.823 95.7503 327.917 96.1308 327.917 96.517V117.995H346.942V96.517C346.942 96.1308 347.035 95.7503 347.213 95.4077L347.616 94.6139H327.243ZM345.855 96.517V116.908H329.004V96.517C329.004 96.2422 328.971 95.9683 328.906 95.7014H345.952C345.887 95.9683 345.854 96.2422 345.855 96.517ZM303.326 94.6139L303.728 95.4077C303.907 95.7503 304 96.1308 304 96.517V117.995H323.025V96.517C323.025 96.1308 323.118 95.7503 323.297 95.4077L323.699 94.6139H303.326ZM321.938 96.517V116.908H305.087V96.517C305.088 96.2422 305.055 95.9683 304.989 95.7014H322.036C321.97 95.9683 321.937 96.2422 321.938 96.517ZM279.409 94.6139L279.812 95.4077C279.99 95.7503 280.083 96.1308 280.083 96.517V117.995H299.108V96.517C299.108 96.1308 299.202 95.7503 299.38 95.4077L299.782 94.6139H279.409ZM298.021 96.517V116.908H281.17V96.517C281.171 96.2422 281.138 95.9683 281.072 95.7014H298.119C298.053 95.9683 298.021 96.2422 298.021 96.517ZM255.492 94.6139L255.895 95.4077C256.073 95.7503 256.166 96.1308 256.166 96.517V117.995H275.191V96.517C275.191 96.1308 275.285 95.7503 275.463 95.4077L275.865 94.6139H255.492ZM274.104 96.517V116.908H257.254V96.517C257.254 96.2422 257.221 95.9683 257.156 95.7014H274.202C274.137 95.9683 274.104 96.2422 274.104 96.517ZM231.575 94.6139L231.978 95.4077C232.156 95.7503 232.249 96.1308 232.25 96.517V117.995H251.274V96.517C251.275 96.1308 251.368 95.7503 251.546 95.4077L251.949 94.6139H231.575ZM250.187 96.517V116.908H233.337V96.517C233.337 96.2422 233.304 95.9683 233.239 95.7014H250.285C250.22 95.9683 250.187 96.2422 250.187 96.517ZM207.659 94.6139L208.061 95.4077C208.239 95.7503 208.333 96.1308 208.333 96.517V117.995H227.358V96.517C227.358 96.1308 227.451 95.7503 227.629 95.4077L228.032 94.6139H207.659ZM226.27 96.517V116.908H209.42V96.517C209.42 96.2422 209.387 95.9683 209.322 95.7014H226.368C226.303 95.9683 226.27 96.2422 226.27 96.517ZM183.742 94.6139L184.144 95.4077C184.322 95.7503 184.416 96.1308 184.416 96.517V117.995H203.441V96.517C203.441 96.1308 203.534 95.7503 203.712 95.4077L204.115 94.6139H183.742ZM202.354 96.517V116.908H185.503V96.517C185.503 96.2422 185.471 95.9683 185.405 95.7014H202.452C202.386 95.9683 202.353 96.2422 202.354 96.517ZM159.825 94.6139L160.227 95.4077C160.406 95.7503 160.499 96.1308 160.499 96.517V117.995H179.524V96.517C179.524 96.1308 179.617 95.7503 179.796 95.4077L180.198 94.6139H159.825ZM178.437 96.517V116.908H161.586V96.517C161.587 96.2422 161.554 95.9683 161.488 95.7014H178.535C178.469 95.9683 178.436 96.2422 178.437 96.517ZM351.16 94.6139L351.562 95.4077C351.74 95.7503 351.834 96.1308 351.834 96.517V117.995H370.859V96.517C370.859 96.1308 370.952 95.7503 371.13 95.4077L371.533 94.6139H351.16ZM369.771 96.517V116.908H352.921V96.517C352.921 96.2422 352.888 95.9683 352.823 95.7014H369.869C369.804 95.9683 369.771 96.2422 369.771 96.517ZM327.645 95.4077C327.823 95.7503 327.917 96.1308 327.917 96.517V117.995H346.942V96.517C346.942 96.1308 347.035 95.7503 347.213 95.4077L347.616 94.6139H327.243L327.645 95.4077ZM345.952 95.7014C345.887 95.9683 345.854 96.2422 345.855 96.517V116.908H329.004V96.517C329.004 96.2422 328.971 95.9683 328.906 95.7014H345.952ZM303.728 95.4077C303.907 95.7503 304 96.1308 304 96.517V117.995H323.025V96.517C323.025 96.1308 323.118 95.7503 323.297 95.4077L323.699 94.6139H303.326L303.728 95.4077ZM322.036 95.7014C321.97 95.9683 321.937 96.2422 321.938 96.517V116.908H305.087V96.517C305.088 96.2422 305.055 95.9683 304.989 95.7014H322.036ZM279.812 95.4077C279.99 95.7503 280.083 96.1308 280.083 96.517V117.995H299.108V96.517C299.108 96.1308 299.202 95.7503 299.38 95.4077L299.782 94.6139H279.409L279.812 95.4077ZM298.119 95.7014C298.053 95.9683 298.021 96.2422 298.021 96.517V116.908H281.17V96.517C281.171 96.2422 281.138 95.9683 281.072 95.7014H298.119ZM255.895 95.4077C256.073 95.7503 256.166 96.1308 256.166 96.517V117.995H275.191V96.517C275.191 96.1308 275.285 95.7503 275.463 95.4077L275.865 94.6139H255.492L255.895 95.4077ZM274.202 95.7014C274.137 95.9683 274.104 96.2422 274.104 96.517V116.908H257.254V96.517C257.254 96.2422 257.221 95.9683 257.156 95.7014H274.202ZM231.978 95.4077C232.156 95.7503 232.249 96.1308 232.25 96.517V117.995H251.274V96.517C251.275 96.1308 251.368 95.7503 251.546 95.4077L251.949 94.6139H231.575L231.978 95.4077ZM250.285 95.7014C250.22 95.9683 250.187 96.2422 250.187 96.517V116.908H233.337V96.517C233.337 96.2422 233.304 95.9683 233.239 95.7014H250.285ZM208.061 95.4077C208.239 95.7503 208.333 96.1308 208.333 96.517V117.995H227.358V96.517C227.358 96.1308 227.451 95.7503 227.629 95.4077L228.032 94.6139H207.659L208.061 95.4077ZM226.368 95.7014C226.303 95.9683 226.27 96.2422 226.27 96.517V116.908H209.42V96.517C209.42 96.2422 209.387 95.9683 209.322 95.7014H226.368ZM184.144 95.4077C184.322 95.7503 184.416 96.1308 184.416 96.517V117.995H203.441V96.517C203.441 96.1308 203.534 95.7503 203.712 95.4077L204.115 94.6139H183.742L184.144 95.4077ZM202.452 95.7014C202.386 95.9683 202.353 96.2422 202.354 96.517V116.908H185.503V96.517C185.503 96.2422 185.471 95.9683 185.405 95.7014H202.452ZM160.227 95.4077C160.406 95.7503 160.499 96.1308 160.499 96.517V117.995H179.524V96.517C179.524 96.1308 179.617 95.7503 179.796 95.4077L180.198 94.6139H159.825L160.227 95.4077ZM178.535 95.7014C178.469 95.9683 178.436 96.2422 178.437 96.517V116.908H161.586V96.517C161.587 96.2422 161.554 95.9683 161.488 95.7014H178.535ZM351.562 95.4077C351.74 95.7503 351.834 96.1308 351.834 96.517V117.995H370.859V96.517C370.859 96.1308 370.952 95.7503 371.13 95.4077L371.533 94.6139H351.16L351.562 95.4077ZM369.869 95.7014C369.804 95.9683 369.771 96.2422 369.771 96.517V116.908H352.921V96.517C352.921 96.2422 352.888 95.9683 352.823 95.7014H369.869ZM327.645 95.4077C327.823 95.7503 327.917 96.1308 327.917 96.517V117.995H346.942V96.517C346.942 96.1308 347.035 95.7503 347.213 95.4077L347.616 94.6139H327.243L327.645 95.4077ZM345.952 95.7014C345.887 95.9683 345.854 96.2422 345.855 96.517V116.908H329.004V96.517C329.004 96.2422 328.971 95.9683 328.906 95.7014H345.952ZM303.728 95.4077C303.907 95.7503 304 96.1308 304 96.517V117.995H323.025V96.517C323.025 96.1308 323.118 95.7503 323.297 95.4077L323.699 94.6139H303.326L303.728 95.4077ZM322.036 95.7014C321.97 95.9683 321.937 96.2422 321.938 96.517V116.908H305.087V96.517C305.088 96.2422 305.055 95.9683 304.989 95.7014H322.036ZM279.812 95.4077C279.99 95.7503 280.083 96.1308 280.083 96.517V117.995H299.108V96.517C299.108 96.1308 299.202 95.7503 299.38 95.4077L299.782 94.6139H279.409L279.812 95.4077ZM298.119 95.7014C298.053 95.9683 298.021 96.2422 298.021 96.517V116.908H281.17V96.517C281.171 96.2422 281.138 95.9683 281.072 95.7014H298.119ZM255.895 95.4077C256.073 95.7503 256.166 96.1308 256.166 96.517V117.995H275.191V96.517C275.191 96.1308 275.285 95.7503 275.463 95.4077L275.865 94.6139H255.492L255.895 95.4077ZM274.202 95.7014C274.137 95.9683 274.104 96.2422 274.104 96.517V116.908H257.254V96.517C257.254 96.2422 257.221 95.9683 257.156 95.7014H274.202ZM231.978 95.4077C232.156 95.7503 232.249 96.1308 232.25 96.517V117.995H251.274V96.517C251.275 96.1308 251.368 95.7503 251.546 95.4077L251.949 94.6139H231.575L231.978 95.4077ZM250.285 95.7014C250.22 95.9683 250.187 96.2422 250.187 96.517V116.908H233.337V96.517C233.337 96.2422 233.304 95.9683 233.239 95.7014H250.285ZM208.061 95.4077C208.239 95.7503 208.333 96.1308 208.333 96.517V117.995H227.358V96.517C227.358 96.1308 227.451 95.7503 227.629 95.4077L228.032 94.6139H207.659L208.061 95.4077ZM226.368 95.7014C226.303 95.9683 226.27 96.2422 226.27 96.517V116.908H209.42V96.517C209.42 96.2422 209.387 95.9683 209.322 95.7014H226.368ZM184.144 95.4077C184.322 95.7503 184.416 96.1308 184.416 96.517V117.995H203.441V96.517C203.441 96.1308 203.534 95.7503 203.712 95.4077L204.115 94.6139H183.742L184.144 95.4077ZM202.452 95.7014C202.386 95.9683 202.353 96.2422 202.354 96.517V116.908H185.503V96.517C185.503 96.2422 185.471 95.9683 185.405 95.7014H202.452ZM160.227 95.4077C160.406 95.7503 160.499 96.1308 160.499 96.517V117.995H179.524V96.517C179.524 96.1308 179.617 95.7503 179.796 95.4077L180.198 94.6139H159.825L160.227 95.4077ZM178.535 95.7014C178.469 95.9683 178.436 96.2422 178.437 96.517V116.908H161.586V96.517C161.587 96.2422 161.554 95.9683 161.488 95.7014H178.535ZM392.601 121.258H386.122C385.765 120.007 385.01 118.906 383.973 118.122C382.936 117.337 381.671 116.911 380.371 116.908H376.838V96.517C376.839 96.0793 376.756 95.6454 376.593 95.2392C377.209 94.8764 377.688 94.3209 377.957 93.6584C378.226 92.996 378.27 92.2634 378.081 91.5737C377.893 90.884 377.482 90.2756 376.914 89.8423C376.345 89.409 375.65 89.175 374.935 89.1763H156.422C155.708 89.175 155.012 89.409 154.444 89.8423C153.875 90.2756 153.465 90.884 153.276 91.5737C153.088 92.2634 153.131 92.996 153.4 93.6584C153.669 94.3209 154.149 94.8764 154.765 95.2392C154.602 95.6454 154.518 96.0793 154.52 96.517V116.908H150.987C149.686 116.911 148.422 117.337 147.385 118.122C146.347 118.906 145.593 120.007 145.236 121.258H138.213C136.916 121.26 135.673 121.776 134.756 122.694C133.839 123.611 133.323 124.854 133.321 126.152V413.256C133.324 414.553 133.84 415.796 134.757 416.713C135.674 417.63 136.916 418.147 138.213 418.15H392.601C393.898 418.148 395.141 417.632 396.058 416.714C396.975 415.797 397.491 414.553 397.493 413.256V126.152C397.491 124.854 396.975 123.611 396.058 122.694C395.141 121.776 393.898 121.26 392.601 121.258ZM396.406 413.256C396.405 414.033 396.167 414.791 395.723 415.429C395.279 416.066 394.65 416.553 393.922 416.823C393.5 416.984 393.052 417.065 392.601 417.062H138.213C137.762 417.065 137.314 416.984 136.892 416.823C136.164 416.553 135.535 416.066 135.091 415.429C134.647 414.791 134.409 414.033 134.408 413.256V126.152C134.409 125.143 134.81 124.175 135.524 123.462C136.237 122.748 137.204 122.347 138.213 122.346H146.106L146.193 121.911C146.421 120.807 147.022 119.815 147.895 119.102C148.768 118.389 149.86 117.998 150.987 117.995H155.607V96.517C155.607 96.0745 155.727 95.6404 155.955 95.2609L156.292 94.7009L155.678 94.4725C155.198 94.2984 154.794 93.9605 154.539 93.5183C154.284 93.0761 154.192 92.5579 154.281 92.0549C154.37 91.552 154.634 91.0966 155.026 90.769C155.417 90.4413 155.912 90.2624 156.422 90.2638H374.935C375.446 90.2624 375.94 90.4413 376.332 90.769C376.724 91.0966 376.987 91.552 377.076 92.0549C377.165 92.5579 377.074 93.0761 376.819 93.5183C376.563 93.9605 376.16 94.2984 375.68 94.4725L375.066 94.7009L375.403 95.2609C375.63 95.6403 375.751 96.0745 375.751 96.517V117.995H380.371C381.498 117.998 382.589 118.389 383.462 119.102C384.335 119.815 384.936 120.807 385.165 121.911L385.252 122.346H392.601C393.61 122.347 394.577 122.748 395.29 123.462C396.004 124.175 396.405 125.143 396.406 126.152L396.406 413.256ZM159.825 94.6139L160.227 95.4077C160.406 95.7503 160.499 96.1308 160.499 96.517V117.995H179.524V96.517C179.524 96.1308 179.617 95.7503 179.796 95.4077L180.198 94.6139H159.825ZM178.437 96.517V116.908H161.586V96.517C161.587 96.2422 161.554 95.9683 161.488 95.7014H178.535C178.469 95.9683 178.436 96.2422 178.437 96.517ZM183.742 94.6139L184.144 95.4077C184.322 95.7503 184.416 96.1308 184.416 96.517V117.995H203.441V96.517C203.441 96.1308 203.534 95.7503 203.712 95.4077L204.115 94.6139H183.742ZM202.354 96.517V116.908H185.503V96.517C185.503 96.2422 185.471 95.9683 185.405 95.7014H202.452C202.386 95.9683 202.353 96.2422 202.354 96.517ZM207.659 94.6139L208.061 95.4077C208.239 95.7503 208.333 96.1308 208.333 96.517V117.995H227.358V96.517C227.358 96.1308 227.451 95.7503 227.629 95.4077L228.032 94.6139H207.659ZM226.27 96.517V116.908H209.42V96.517C209.42 96.2422 209.387 95.9683 209.322 95.7014H226.368C226.303 95.9683 226.27 96.2422 226.27 96.517ZM231.575 94.6139L231.978 95.4077C232.156 95.7503 232.249 96.1308 232.25 96.517V117.995H251.274V96.517C251.275 96.1308 251.368 95.7503 251.546 95.4077L251.949 94.6139H231.575ZM250.187 96.517V116.908H233.337V96.517C233.337 96.2422 233.304 95.9683 233.239 95.7014H250.285C250.22 95.9683 250.187 96.2422 250.187 96.517ZM255.492 94.6139L255.895 95.4077C256.073 95.7503 256.166 96.1308 256.166 96.517V117.995H275.191V96.517C275.191 96.1308 275.285 95.7503 275.463 95.4077L275.865 94.6139H255.492ZM274.104 96.517V116.908H257.254V96.517C257.254 96.2422 257.221 95.9683 257.156 95.7014H274.202C274.137 95.9683 274.104 96.2422 274.104 96.517ZM279.409 94.6139L279.812 95.4077C279.99 95.7503 280.083 96.1308 280.083 96.517V117.995H299.108V96.517C299.108 96.1308 299.202 95.7503 299.38 95.4077L299.782 94.6139H279.409ZM298.021 96.517V116.908H281.17V96.517C281.171 96.2422 281.138 95.9683 281.072 95.7014H298.119C298.053 95.9683 298.021 96.2422 298.021 96.517ZM303.326 94.6139L303.728 95.4077C303.907 95.7503 304 96.1308 304 96.517V117.995H323.025V96.517C323.025 96.1308 323.118 95.7503 323.297 95.4077L323.699 94.6139H303.326ZM321.938 96.517V116.908H305.087V96.517C305.088 96.2422 305.055 95.9683 304.989 95.7014H322.036C321.97 95.9683 321.937 96.2422 321.938 96.517ZM327.243 94.6139L327.645 95.4077C327.823 95.7503 327.917 96.1308 327.917 96.517V117.995H346.942V96.517C346.942 96.1308 347.035 95.7503 347.213 95.4077L347.616 94.6139H327.243ZM345.855 96.517V116.908H329.004V96.517C329.004 96.2422 328.971 95.9683 328.906 95.7014H345.952C345.887 95.9683 345.854 96.2422 345.855 96.517ZM351.16 94.6139L351.562 95.4077C351.74 95.7503 351.834 96.1308 351.834 96.517V117.995H370.859V96.517C370.859 96.1308 370.952 95.7503 371.13 95.4077L371.533 94.6139H351.16ZM369.771 96.517V116.908H352.921V96.517C352.921 96.2422 352.888 95.9683 352.823 95.7014H369.869C369.804 95.9683 369.771 96.2422 369.771 96.517ZM159.825 94.6139L160.227 95.4077C160.406 95.7503 160.499 96.1308 160.499 96.517V117.995H179.524V96.517C179.524 96.1308 179.617 95.7503 179.796 95.4077L180.198 94.6139H159.825ZM178.437 96.517V116.908H161.586V96.517C161.587 96.2422 161.554 95.9683 161.488 95.7014H178.535C178.469 95.9683 178.436 96.2422 178.437 96.517ZM183.742 94.6139L184.144 95.4077C184.322 95.7503 184.416 96.1308 184.416 96.517V117.995H203.441V96.517C203.441 96.1308 203.534 95.7503 203.712 95.4077L204.115 94.6139H183.742ZM202.354 96.517V116.908H185.503V96.517C185.503 96.2422 185.471 95.9683 185.405 95.7014H202.452C202.386 95.9683 202.353 96.2422 202.354 96.517ZM207.659 94.6139L208.061 95.4077C208.239 95.7503 208.333 96.1308 208.333 96.517V117.995H227.358V96.517C227.358 96.1308 227.451 95.7503 227.629 95.4077L228.032 94.6139H207.659ZM226.27 96.517V116.908H209.42V96.517C209.42 96.2422 209.387 95.9683 209.322 95.7014H226.368C226.303 95.9683 226.27 96.2422 226.27 96.517ZM231.575 94.6139L231.978 95.4077C232.156 95.7503 232.249 96.1308 232.25 96.517V117.995H251.274V96.517C251.275 96.1308 251.368 95.7503 251.546 95.4077L251.949 94.6139H231.575ZM250.187 96.517V116.908H233.337V96.517C233.337 96.2422 233.304 95.9683 233.239 95.7014H250.285C250.22 95.9683 250.187 96.2422 250.187 96.517ZM255.492 94.6139L255.895 95.4077C256.073 95.7503 256.166 96.1308 256.166 96.517V117.995H275.191V96.517C275.191 96.1308 275.285 95.7503 275.463 95.4077L275.865 94.6139H255.492ZM274.104 96.517V116.908H257.254V96.517C257.254 96.2422 257.221 95.9683 257.156 95.7014H274.202C274.137 95.9683 274.104 96.2422 274.104 96.517ZM279.409 94.6139L279.812 95.4077C279.99 95.7503 280.083 96.1308 280.083 96.517V117.995H299.108V96.517C299.108 96.1308 299.202 95.7503 299.38 95.4077L299.782 94.6139H279.409ZM298.021 96.517V116.908H281.17V96.517C281.171 96.2422 281.138 95.9683 281.072 95.7014H298.119C298.053 95.9683 298.021 96.2422 298.021 96.517ZM303.326 94.6139L303.728 95.4077C303.907 95.7503 304 96.1308 304 96.517V117.995H323.025V96.517C323.025 96.1308 323.118 95.7503 323.297 95.4077L323.699 94.6139H303.326ZM321.938 96.517V116.908H305.087V96.517C305.088 96.2422 305.055 95.9683 304.989 95.7014H322.036C321.97 95.9683 321.937 96.2422 321.938 96.517ZM327.243 94.6139L327.645 95.4077C327.823 95.7503 327.917 96.1308 327.917 96.517V117.995H346.942V96.517C346.942 96.1308 347.035 95.7503 347.213 95.4077L347.616 94.6139H327.243ZM345.855 96.517V116.908H329.004V96.517C329.004 96.2422 328.971 95.9683 328.906 95.7014H345.952C345.887 95.9683 345.854 96.2422 345.855 96.517ZM351.16 94.6139L351.562 95.4077C351.74 95.7503 351.834 96.1308 351.834 96.517V117.995H370.859V96.517C370.859 96.1308 370.952 95.7503 371.13 95.4077L371.533 94.6139H351.16ZM369.771 96.517V116.908H352.921V96.517C352.921 96.2422 352.888 95.9683 352.823 95.7014H369.869C369.804 95.9683 369.771 96.2422 369.771 96.517ZM159.825 94.6139L160.227 95.4077C160.406 95.7503 160.499 96.1308 160.499 96.517V117.995H179.524V96.517C179.524 96.1308 179.617 95.7503 179.796 95.4077L180.198 94.6139H159.825ZM178.437 96.517V116.908H161.586V96.517C161.587 96.2422 161.554 95.9683 161.488 95.7014H178.535C178.469 95.9683 178.436 96.2422 178.437 96.517ZM183.742 94.6139L184.144 95.4077C184.322 95.7503 184.416 96.1308 184.416 96.517V117.995H203.441V96.517C203.441 96.1308 203.534 95.7503 203.712 95.4077L204.115 94.6139H183.742ZM202.354 96.517V116.908H185.503V96.517C185.503 96.2422 185.471 95.9683 185.405 95.7014H202.452C202.386 95.9683 202.353 96.2422 202.354 96.517ZM207.659 94.6139L208.061 95.4077C208.239 95.7503 208.333 96.1308 208.333 96.517V117.995H227.358V96.517C227.358 96.1308 227.451 95.7503 227.629 95.4077L228.032 94.6139H207.659ZM226.27 96.517V116.908H209.42V96.517C209.42 96.2422 209.387 95.9683 209.322 95.7014H226.368C226.303 95.9683 226.27 96.2422 226.27 96.517ZM231.575 94.6139L231.978 95.4077C232.156 95.7503 232.249 96.1308 232.25 96.517V117.995H251.274V96.517C251.275 96.1308 251.368 95.7503 251.546 95.4077L251.949 94.6139H231.575ZM250.187 96.517V116.908H233.337V96.517C233.337 96.2422 233.304 95.9683 233.239 95.7014H250.285C250.22 95.9683 250.187 96.2422 250.187 96.517ZM255.492 94.6139L255.895 95.4077C256.073 95.7503 256.166 96.1308 256.166 96.517V117.995H275.191V96.517C275.191 96.1308 275.285 95.7503 275.463 95.4077L275.865 94.6139H255.492ZM274.104 96.517V116.908H257.254V96.517C257.254 96.2422 257.221 95.9683 257.156 95.7014H274.202C274.137 95.9683 274.104 96.2422 274.104 96.517ZM279.409 94.6139L279.812 95.4077C279.99 95.7503 280.083 96.1308 280.083 96.517V117.995H299.108V96.517C299.108 96.1308 299.202 95.7503 299.38 95.4077L299.782 94.6139H279.409ZM298.021 96.517V116.908H281.17V96.517C281.171 96.2422 281.138 95.9683 281.072 95.7014H298.119C298.053 95.9683 298.021 96.2422 298.021 96.517ZM303.326 94.6139L303.728 95.4077C303.907 95.7503 304 96.1308 304 96.517V117.995H323.025V96.517C323.025 96.1308 323.118 95.7503 323.297 95.4077L323.699 94.6139H303.326ZM321.938 96.517V116.908H305.087V96.517C305.088 96.2422 305.055 95.9683 304.989 95.7014H322.036C321.97 95.9683 321.937 96.2422 321.938 96.517ZM327.243 94.6139L327.645 95.4077C327.823 95.7503 327.917 96.1308 327.917 96.517V117.995H346.942V96.517C346.942 96.1308 347.035 95.7503 347.213 95.4077L347.616 94.6139H327.243ZM345.855 96.517V116.908H329.004V96.517C329.004 96.2422 328.971 95.9683 328.906 95.7014H345.952C345.887 95.9683 345.854 96.2422 345.855 96.517ZM351.16 94.6139L351.562 95.4077C351.74 95.7503 351.834 96.1308 351.834 96.517V117.995H370.859V96.517C370.859 96.1308 370.952 95.7503 371.13 95.4077L371.533 94.6139H351.16ZM369.771 96.517V116.908H352.921V96.517C352.921 96.2422 352.888 95.9683 352.823 95.7014H369.869C369.804 95.9683 369.771 96.2422 369.771 96.517ZM159.825 94.6139L160.227 95.4077C160.406 95.7503 160.499 96.1308 160.499 96.517V117.995H179.524V96.517C179.524 96.1308 179.617 95.7503 179.796 95.4077L180.198 94.6139H159.825ZM178.437 96.517V116.908H161.586V96.517C161.587 96.2422 161.554 95.9683 161.488 95.7014H178.535C178.469 95.9683 178.436 96.2422 178.437 96.517ZM183.742 94.6139L184.144 95.4077C184.322 95.7503 184.416 96.1308 184.416 96.517V117.995H203.441V96.517C203.441 96.1308 203.534 95.7503 203.712 95.4077L204.115 94.6139H183.742ZM202.354 96.517V116.908H185.503V96.517C185.503 96.2422 185.471 95.9683 185.405 95.7014H202.452C202.386 95.9683 202.353 96.2422 202.354 96.517ZM207.659 94.6139L208.061 95.4077C208.239 95.7503 208.333 96.1308 208.333 96.517V117.995H227.358V96.517C227.358 96.1308 227.451 95.7503 227.629 95.4077L228.032 94.6139H207.659ZM226.27 96.517V116.908H209.42V96.517C209.42 96.2422 209.387 95.9683 209.322 95.7014H226.368C226.303 95.9683 226.27 96.2422 226.27 96.517ZM231.575 94.6139L231.978 95.4077C232.156 95.7503 232.249 96.1308 232.25 96.517V117.995H251.274V96.517C251.275 96.1308 251.368 95.7503 251.546 95.4077L251.949 94.6139H231.575ZM250.187 96.517V116.908H233.337V96.517C233.337 96.2422 233.304 95.9683 233.239 95.7014H250.285C250.22 95.9683 250.187 96.2422 250.187 96.517ZM255.492 94.6139L255.895 95.4077C256.073 95.7503 256.166 96.1308 256.166 96.517V117.995H275.191V96.517C275.191 96.1308 275.285 95.7503 275.463 95.4077L275.865 94.6139H255.492ZM274.104 96.517V116.908H257.254V96.517C257.254 96.2422 257.221 95.9683 257.156 95.7014H274.202C274.137 95.9683 274.104 96.2422 274.104 96.517ZM279.409 94.6139L279.812 95.4077C279.99 95.7503 280.083 96.1308 280.083 96.517V117.995H299.108V96.517C299.108 96.1308 299.202 95.7503 299.38 95.4077L299.782 94.6139H279.409ZM298.021 96.517V116.908H281.17V96.517C281.171 96.2422 281.138 95.9683 281.072 95.7014H298.119C298.053 95.9683 298.021 96.2422 298.021 96.517ZM303.326 94.6139L303.728 95.4077C303.907 95.7503 304 96.1308 304 96.517V117.995H323.025V96.517C323.025 96.1308 323.118 95.7503 323.297 95.4077L323.699 94.6139H303.326ZM321.938 96.517V116.908H305.087V96.517C305.088 96.2422 305.055 95.9683 304.989 95.7014H322.036C321.97 95.9683 321.937 96.2422 321.938 96.517ZM327.243 94.6139L327.645 95.4077C327.823 95.7503 327.917 96.1308 327.917 96.517V117.995H346.942V96.517C346.942 96.1308 347.035 95.7503 347.213 95.4077L347.616 94.6139H327.243ZM345.855 96.517V116.908H329.004V96.517C329.004 96.2422 328.971 95.9683 328.906 95.7014H345.952C345.887 95.9683 345.854 96.2422 345.855 96.517ZM351.16 94.6139L351.562 95.4077C351.74 95.7503 351.834 96.1308 351.834 96.517V117.995H370.859V96.517C370.859 96.1308 370.952 95.7503 371.13 95.4077L371.533 94.6139H351.16ZM369.771 96.517V116.908H352.921V96.517C352.921 96.2422 352.888 95.9683 352.823 95.7014H369.869C369.804 95.9683 369.771 96.2422 369.771 96.517Z" fill="#3F3D56"/>
<path d="M224.451 189.772H184.366C183.522 189.771 182.713 189.435 182.116 188.837C181.519 188.24 181.183 187.431 181.182 186.586V165.225C181.183 164.381 181.519 163.571 182.116 162.974C182.713 162.377 183.522 162.041 184.366 162.04H224.451C225.295 162.041 226.104 162.377 226.701 162.974C227.298 163.571 227.634 164.381 227.635 165.225V186.586C227.634 187.431 227.298 188.24 226.701 188.837C226.104 189.435 225.295 189.771 224.451 189.772Z" fill="#2393FE"/>
<path d="M285.449 189.772H245.365C244.521 189.771 243.711 189.435 243.114 188.837C242.517 188.24 242.182 187.431 242.181 186.586V165.225C242.182 164.381 242.517 163.571 243.114 162.974C243.711 162.377 244.521 162.041 245.365 162.04H285.449C286.293 162.041 287.103 162.377 287.7 162.974C288.297 163.571 288.632 164.381 288.633 165.225V186.586C288.632 187.431 288.297 188.24 287.7 188.837C287.103 189.435 286.293 189.771 285.449 189.772Z" fill="#2393FE"/>
<path d="M346.448 189.772H306.363C305.519 189.771 304.71 189.435 304.113 188.837C303.516 188.24 303.18 187.431 303.179 186.586V165.225C303.18 164.381 303.516 163.571 304.113 162.974C304.71 162.377 305.519 162.041 306.363 162.04H346.448C347.292 162.041 348.101 162.377 348.698 162.974C349.295 163.571 349.631 164.381 349.632 165.225V186.586C349.631 187.431 349.295 188.24 348.698 188.837C348.101 189.435 347.292 189.771 346.448 189.772Z" fill="#2393FE"/>
<path d="M224.451 261.004H184.366C183.522 261.003 182.713 260.667 182.116 260.07C181.519 259.473 181.183 258.663 181.182 257.818V236.458C181.183 235.613 181.519 234.803 182.116 234.206C182.713 233.609 183.522 233.273 184.366 233.272H224.451C225.295 233.273 226.104 233.609 226.701 234.206C227.298 234.803 227.634 235.613 227.635 236.458V257.818C227.634 258.663 227.298 259.473 226.701 260.07C226.104 260.667 225.295 261.003 224.451 261.004Z" fill="#2393FE"/>
<path d="M285.449 261.004H245.365C244.521 261.003 243.711 260.667 243.114 260.07C242.517 259.473 242.182 258.663 242.181 257.818V236.458C242.182 235.613 242.517 234.803 243.114 234.206C243.711 233.609 244.521 233.273 245.365 233.272H285.449C286.293 233.273 287.103 233.609 287.7 234.206C288.297 234.803 288.632 235.613 288.633 236.458V257.818C288.632 258.663 288.297 259.473 287.7 260.07C287.103 260.667 286.293 261.003 285.449 261.004Z" fill="#2393FE"/>
<path d="M346.448 261.004H306.363C305.519 261.003 304.71 260.667 304.113 260.07C303.516 259.473 303.18 258.663 303.179 257.818V236.458C303.18 235.613 303.516 234.803 304.113 234.206C304.71 233.609 305.519 233.273 306.363 233.272H346.448C347.292 233.273 348.101 233.609 348.698 234.206C349.295 234.803 349.631 235.613 349.632 236.458V257.818C349.631 258.663 349.295 259.473 348.698 260.07C348.101 260.667 347.292 261.003 346.448 261.004Z" fill="#2393FE"/>
<path d="M224.451 332.236H184.366C183.522 332.235 182.713 331.899 182.116 331.302C181.519 330.705 181.183 329.895 181.182 329.051V307.69C181.183 306.845 181.519 306.036 182.116 305.438C182.713 304.841 183.522 304.505 184.366 304.504H224.451C225.295 304.505 226.104 304.841 226.701 305.438C227.298 306.036 227.634 306.845 227.635 307.69V329.051C227.634 329.895 227.298 330.705 226.701 331.302C226.104 331.899 225.295 332.235 224.451 332.236Z" fill="#2393FE"/>
<path d="M285.449 332.236H245.365C244.521 332.235 243.711 331.899 243.114 331.302C242.517 330.705 242.182 329.895 242.181 329.051V307.69C242.182 306.845 242.517 306.036 243.114 305.438C243.711 304.841 244.521 304.505 245.365 304.504H285.449C286.293 304.505 287.103 304.841 287.7 305.438C288.297 306.036 288.632 306.845 288.633 307.69V329.051C288.632 329.895 288.297 330.705 287.7 331.302C287.103 331.899 286.293 332.235 285.449 332.236Z" fill="#2393FE"/>
<path d="M346.448 332.236H306.363C305.519 332.235 304.71 331.899 304.113 331.302C303.516 330.705 303.18 329.895 303.179 329.051V307.69C303.18 306.845 303.516 306.036 304.113 305.438C304.71 304.841 305.519 304.505 306.363 304.504H346.448C347.292 304.505 348.101 304.841 348.698 305.438C349.295 306.036 349.631 306.845 349.632 307.69V329.051C349.631 329.895 349.295 330.705 348.698 331.302C348.101 331.899 347.292 332.235 346.448 332.236Z" fill="#2393FE"/>
<path d="M217.961 192.512H171.526C170.404 192.511 169.328 192.065 168.535 191.271C167.741 190.477 167.295 189.401 167.294 188.278V163.533C167.295 162.411 167.741 161.334 168.535 160.541C169.328 159.747 170.404 159.3 171.526 159.299H217.961C219.083 159.3 220.159 159.747 220.953 160.541C221.746 161.334 222.192 162.411 222.194 163.533V188.278C222.192 189.401 221.746 190.477 220.953 191.271C220.159 192.065 219.083 192.511 217.961 192.512ZM171.526 160.387C170.692 160.388 169.893 160.719 169.303 161.309C168.713 161.899 168.382 162.699 168.381 163.533V188.278C168.382 189.113 168.713 189.912 169.303 190.502C169.893 191.092 170.692 191.424 171.526 191.425H217.961C218.795 191.424 219.595 191.092 220.184 190.502C220.774 189.912 221.106 189.113 221.107 188.278V163.533C221.106 162.699 220.774 161.899 220.184 161.309C219.595 160.719 218.795 160.388 217.961 160.387H171.526Z" fill="#3F3D56"/>
<path d="M288.625 192.512H242.189C241.067 192.511 239.992 192.065 239.198 191.271C238.405 190.477 237.958 189.401 237.957 188.278V163.533C237.958 162.411 238.405 161.334 239.198 160.541C239.992 159.747 241.067 159.3 242.189 159.299H288.625C289.747 159.3 290.823 159.747 291.616 160.541C292.41 161.334 292.856 162.411 292.857 163.533V188.278C292.856 189.401 292.41 190.477 291.616 191.271C290.823 192.065 289.747 192.511 288.625 192.512ZM242.189 160.387C241.356 160.388 240.556 160.719 239.966 161.309C239.377 161.899 239.045 162.699 239.044 163.533V188.278C239.045 189.113 239.377 189.912 239.966 190.502C240.556 191.092 241.356 191.424 242.189 191.425H288.625C289.459 191.424 290.258 191.092 290.848 190.502C291.437 189.912 291.769 189.113 291.77 188.278V163.533C291.769 162.699 291.437 161.899 290.848 161.309C290.258 160.719 289.459 160.388 288.625 160.387H242.189Z" fill="#3F3D56"/>
<path d="M359.288 192.512H312.853C311.731 192.511 310.655 192.065 309.861 191.271C309.068 190.477 308.622 189.401 308.62 188.278V163.533C308.622 162.411 309.068 161.334 309.861 160.541C310.655 159.747 311.731 159.3 312.853 159.299H359.288C360.41 159.3 361.486 159.747 362.279 160.541C363.073 161.334 363.519 162.411 363.52 163.533V188.278C363.519 189.401 363.073 190.477 362.279 191.271C361.486 192.065 360.41 192.511 359.288 192.512ZM312.853 160.387C312.019 160.388 311.219 160.719 310.63 161.309C310.04 161.899 309.708 162.699 309.707 163.533V188.278C309.708 189.113 310.04 189.912 310.63 190.502C311.219 191.092 312.019 191.424 312.853 191.425H359.288C360.122 191.424 360.921 191.092 361.511 190.502C362.101 189.912 362.432 189.113 362.433 188.278V163.533C362.432 162.699 362.101 161.899 361.511 161.309C360.921 160.719 360.122 160.388 359.288 160.387H312.853Z" fill="#3F3D56"/>
<path d="M217.961 263.745H171.526C170.404 263.743 169.328 263.297 168.535 262.503C167.741 261.709 167.295 260.633 167.294 259.511V234.765C167.295 233.643 167.741 232.567 168.535 231.773C169.328 230.979 170.404 230.533 171.526 230.531H217.961C219.083 230.533 220.159 230.979 220.953 231.773C221.746 232.567 222.192 233.643 222.194 234.765V259.511C222.192 260.633 221.746 261.709 220.953 262.503C220.159 263.297 219.083 263.743 217.961 263.745ZM171.526 231.619C170.692 231.62 169.893 231.952 169.303 232.541C168.713 233.131 168.382 233.931 168.381 234.765V259.511C168.382 260.345 168.713 261.145 169.303 261.734C169.893 262.324 170.692 262.656 171.526 262.657H217.961C218.795 262.656 219.595 262.324 220.184 261.734C220.774 261.145 221.106 260.345 221.107 259.511V234.765C221.106 233.931 220.774 233.131 220.184 232.541C219.595 231.952 218.795 231.62 217.961 231.619H171.526Z" fill="#3F3D56"/>
<path d="M288.625 263.745H242.189C241.067 263.743 239.992 263.297 239.198 262.503C238.405 261.709 237.958 260.633 237.957 259.511V234.765C237.958 233.643 238.405 232.567 239.198 231.773C239.992 230.979 241.067 230.533 242.189 230.531H288.625C289.747 230.533 290.823 230.979 291.616 231.773C292.41 232.567 292.856 233.643 292.857 234.765V259.511C292.856 260.633 292.41 261.709 291.616 262.503C290.823 263.297 289.747 263.743 288.625 263.745ZM242.189 231.619C241.356 231.62 240.556 231.952 239.966 232.541C239.377 233.131 239.045 233.931 239.044 234.765V259.511C239.045 260.345 239.377 261.145 239.966 261.734C240.556 262.324 241.356 262.656 242.189 262.657H288.625C289.459 262.656 290.258 262.324 290.848 261.734C291.437 261.145 291.769 260.345 291.77 259.511V234.765C291.769 233.931 291.437 233.131 290.848 232.541C290.258 231.952 289.459 231.62 288.625 231.619H242.189Z" fill="#3F3D56"/>
<path d="M359.288 263.745H312.853C311.731 263.743 310.655 263.297 309.861 262.503C309.068 261.709 308.622 260.633 308.62 259.511V234.765C308.622 233.643 309.068 232.567 309.861 231.773C310.655 230.979 311.731 230.533 312.853 230.531H359.288C360.41 230.533 361.486 230.979 362.279 231.773C363.073 232.567 363.519 233.643 363.52 234.765V259.511C363.519 260.633 363.073 261.709 362.279 262.503C361.486 263.297 360.41 263.743 359.288 263.745ZM312.853 231.619C312.019 231.62 311.219 231.952 310.63 232.541C310.04 233.131 309.708 233.931 309.707 234.765V259.511C309.708 260.345 310.04 261.145 310.63 261.734C311.219 262.324 312.019 262.656 312.853 262.657H359.288C360.122 262.656 360.921 262.324 361.511 261.734C362.101 261.145 362.432 260.345 362.433 259.511V234.765C362.432 233.931 362.101 233.131 361.511 232.541C360.921 231.952 360.122 231.62 359.288 231.619H312.853Z" fill="#3F3D56"/>
<path d="M217.961 334.977H171.526C170.404 334.976 169.328 334.529 168.535 333.735C167.741 332.942 167.295 331.865 167.294 330.743V305.998C167.295 304.875 167.741 303.799 168.535 303.005C169.328 302.211 170.404 301.765 171.526 301.764H217.961C219.083 301.765 220.159 302.211 220.953 303.005C221.746 303.799 222.192 304.875 222.194 305.998V330.743C222.192 331.865 221.746 332.942 220.953 333.735C220.159 334.529 219.083 334.976 217.961 334.977ZM171.526 302.851C170.692 302.852 169.893 303.184 169.303 303.774C168.713 304.364 168.382 305.163 168.381 305.998V330.743C168.382 331.577 168.713 332.377 169.303 332.967C169.893 333.557 170.692 333.888 171.526 333.889H217.961C218.795 333.888 219.595 333.557 220.184 332.967C220.774 332.377 221.106 331.577 221.107 330.743V305.998C221.106 305.163 220.774 304.364 220.184 303.774C219.595 303.184 218.795 302.852 217.961 302.851H171.526Z" fill="#3F3D56"/>
<path d="M288.625 334.977H242.189C241.067 334.976 239.992 334.529 239.198 333.735C238.405 332.942 237.958 331.865 237.957 330.743V305.998C237.958 304.875 238.405 303.799 239.198 303.005C239.992 302.211 241.067 301.765 242.189 301.764H288.625C289.747 301.765 290.823 302.211 291.616 303.005C292.41 303.799 292.856 304.875 292.857 305.998V330.743C292.856 331.865 292.41 332.942 291.616 333.735C290.823 334.529 289.747 334.976 288.625 334.977ZM242.189 302.851C241.356 302.852 240.556 303.184 239.966 303.774C239.377 304.364 239.045 305.163 239.044 305.998V330.743C239.045 331.577 239.377 332.377 239.966 332.967C240.556 333.557 241.356 333.888 242.189 333.889H288.625C289.459 333.888 290.258 333.557 290.848 332.967C291.437 332.377 291.769 331.577 291.77 330.743V305.998C291.769 305.163 291.437 304.364 290.848 303.774C290.258 303.184 289.459 302.852 288.625 302.851H242.189Z" fill="#3F3D56"/>
<path d="M359.288 334.977H312.853C311.731 334.976 310.655 334.529 309.861 333.735C309.068 332.942 308.622 331.865 308.62 330.743V305.998C308.622 304.875 309.068 303.799 309.861 303.005C310.655 302.211 311.731 301.765 312.853 301.764H359.288C360.41 301.765 361.486 302.211 362.279 303.005C363.073 303.799 363.519 304.875 363.52 305.998V330.743C363.519 331.865 363.073 332.942 362.279 333.735C361.486 334.529 360.41 334.976 359.288 334.977ZM312.853 302.851C312.019 302.852 311.219 303.184 310.63 303.774C310.04 304.364 309.708 305.163 309.707 305.998V330.743C309.708 331.577 310.04 332.377 310.63 332.967C311.219 333.557 312.019 333.888 312.853 333.889H359.288C360.122 333.888 360.921 333.557 361.511 332.967C362.101 332.377 362.432 331.577 362.433 330.743V305.998C362.432 305.163 362.101 304.364 361.511 303.774C360.921 303.184 360.122 302.852 359.288 302.851H312.853Z" fill="#3F3D56"/>
<path d="M548.456 418.965H0.543564C0.399402 418.965 0.261144 418.908 0.159206 418.806C0.0572678 418.704 0 418.566 0 418.422C0 418.277 0.0572678 418.139 0.159206 418.037C0.261144 417.935 0.399402 417.878 0.543564 417.878H548.456C548.601 417.878 548.739 417.935 548.841 418.037C548.943 418.139 549 418.277 549 418.422C549 418.566 548.943 418.704 548.841 418.806C548.739 418.908 548.601 418.965 548.456 418.965Z" fill="#3F3D56"/>
<path d="M292.857 366.335C292.872 365.094 292.394 363.898 291.527 363.01C290.661 362.122 289.477 361.614 288.237 361.599H265.407V417.878H292.857V366.335Z" fill="#3F3D56"/>
<path d="M265.951 417.334H237.414V366.493C237.415 365.123 237.96 363.81 238.928 362.842C239.896 361.873 241.208 361.329 242.577 361.327H265.951V417.334ZM238.501 416.247H264.864V362.415H242.577C241.497 362.416 240.46 362.846 239.696 363.61C238.932 364.375 238.502 365.412 238.501 366.493V416.247Z" fill="#3F3D56"/>
<path d="M240.947 393.137C241.847 393.137 242.577 392.407 242.577 391.506C242.577 390.605 241.847 389.874 240.947 389.874C240.046 389.874 239.316 390.605 239.316 391.506C239.316 392.407 240.046 393.137 240.947 393.137Z" fill="#3F3D56"/>
</svg>
