<svg width="252" height="54" viewBox="0 0 252 54" fill="none" xmlns="http://www.w3.org/2000/svg">
<path d="M57.224 14.62V20.236H47.072V24.7H54.56V30.064H47.072V40H40.016V14.62H57.224ZM67.7517 13.36V40H60.6957V13.36H67.7517ZM94.0139 19.804L81.1979 49.612H73.5299L78.3539 39.136L70.0739 19.804H77.9219L82.1699 31.252L86.2739 19.804H94.0139ZM99.9238 17.932C98.6758 17.932 97.6678 17.596 96.8998 16.924C96.1558 16.228 95.7838 15.364 95.7838 14.332C95.7838 13.276 96.1558 12.4 96.8998 11.704C97.6678 11.008 98.6758 10.66 99.9238 10.66C101.148 10.66 102.132 11.008 102.876 11.704C103.644 12.4 104.028 13.276 104.028 14.332C104.028 15.364 103.644 16.228 102.876 16.924C102.132 17.596 101.148 17.932 99.9238 17.932ZM103.416 19.804V40H96.3598V19.804H103.416ZM121.146 19.624C123.474 19.624 125.322 20.404 126.69 21.964C128.058 23.5 128.742 25.588 128.742 28.228V40H121.686V29.164C121.686 28.012 121.386 27.112 120.786 26.464C120.186 25.792 119.382 25.456 118.374 25.456C117.318 25.456 116.49 25.792 115.89 26.464C115.29 27.112 114.99 28.012 114.99 29.164V40H107.934V19.804H114.99V22.684C115.614 21.772 116.454 21.04 117.51 20.488C118.566 19.912 119.778 19.624 121.146 19.624ZM140.566 19.552C141.934 19.552 143.122 19.828 144.13 20.38C145.162 20.932 145.954 21.676 146.506 22.612V19.804H153.562V39.784C153.562 41.68 153.202 43.384 152.482 44.896C151.762 46.432 150.634 47.656 149.098 48.568C147.586 49.48 145.666 49.936 143.338 49.936C140.218 49.936 137.722 49.204 135.85 47.74C133.978 46.276 132.91 44.284 132.646 41.764H139.594C139.738 42.412 140.098 42.916 140.674 43.276C141.25 43.636 141.994 43.816 142.906 43.816C145.306 43.816 146.506 42.472 146.506 39.784V37.192C145.954 38.128 145.162 38.872 144.13 39.424C143.122 39.976 141.934 40.252 140.566 40.252C138.958 40.252 137.494 39.832 136.174 38.992C134.878 38.152 133.846 36.952 133.078 35.392C132.334 33.808 131.962 31.972 131.962 29.884C131.962 27.796 132.334 25.972 133.078 24.412C133.846 22.852 134.878 21.652 136.174 20.812C137.494 19.972 138.958 19.552 140.566 19.552ZM146.506 29.884C146.506 28.588 146.146 27.568 145.426 26.824C144.73 26.08 143.866 25.708 142.834 25.708C141.778 25.708 140.902 26.08 140.206 26.824C139.51 27.544 139.162 28.564 139.162 29.884C139.162 31.18 139.51 32.212 140.206 32.98C140.902 33.724 141.778 34.096 142.834 34.096C143.866 34.096 144.73 33.724 145.426 32.98C146.146 32.236 146.506 31.204 146.506 29.884Z" fill="white"/>
<path d="M180.798 14.62V40H173.742V29.812H165.138V40H158.082V14.62H165.138V24.16H173.742V14.62H180.798ZM188.9 17.932C187.652 17.932 186.644 17.596 185.876 16.924C185.132 16.228 184.76 15.364 184.76 14.332C184.76 13.276 185.132 12.4 185.876 11.704C186.644 11.008 187.652 10.66 188.9 10.66C190.124 10.66 191.108 11.008 191.852 11.704C192.62 12.4 193.004 13.276 193.004 14.332C193.004 15.364 192.62 16.228 191.852 16.924C191.108 17.596 190.124 17.932 188.9 17.932ZM192.392 19.804V40H185.336V19.804H192.392ZM204.363 19.552C205.731 19.552 206.919 19.828 207.927 20.38C208.959 20.932 209.751 21.676 210.303 22.612V19.804H217.359V39.784C217.359 41.68 216.999 43.384 216.279 44.896C215.559 46.432 214.431 47.656 212.895 48.568C211.383 49.48 209.463 49.936 207.135 49.936C204.015 49.936 201.519 49.204 199.647 47.74C197.775 46.276 196.707 44.284 196.443 41.764H203.391C203.535 42.412 203.895 42.916 204.471 43.276C205.047 43.636 205.791 43.816 206.703 43.816C209.103 43.816 210.303 42.472 210.303 39.784V37.192C209.751 38.128 208.959 38.872 207.927 39.424C206.919 39.976 205.731 40.252 204.363 40.252C202.755 40.252 201.291 39.832 199.971 38.992C198.675 38.152 197.643 36.952 196.875 35.392C196.131 33.808 195.759 31.972 195.759 29.884C195.759 27.796 196.131 25.972 196.875 24.412C197.643 22.852 198.675 21.652 199.971 20.812C201.291 19.972 202.755 19.552 204.363 19.552ZM210.303 29.884C210.303 28.588 209.943 27.568 209.223 26.824C208.527 26.08 207.663 25.708 206.631 25.708C205.575 25.708 204.699 26.08 204.003 26.824C203.307 27.544 202.959 28.564 202.959 29.884C202.959 31.18 203.307 32.212 204.003 32.98C204.699 33.724 205.575 34.096 206.631 34.096C207.663 34.096 208.527 33.724 209.223 32.98C209.943 32.236 210.303 31.204 210.303 29.884ZM235.163 19.624C237.467 19.624 239.291 20.404 240.635 21.964C242.003 23.5 242.687 25.588 242.687 28.228V40H235.631V29.164C235.631 28.012 235.331 27.112 234.731 26.464C234.131 25.792 233.327 25.456 232.319 25.456C231.263 25.456 230.435 25.792 229.835 26.464C229.235 27.112 228.935 28.012 228.935 29.164V40H221.879V13.36H228.935V22.684C229.559 21.772 230.399 21.04 231.455 20.488C232.535 19.912 233.771 19.624 235.163 19.624Z" fill="#2393FE"/>
<path d="M249.5 40C250.881 40 252 38.8807 252 37.5C252 36.1193 250.881 35 249.5 35C248.119 35 247 36.1193 247 37.5C247 38.8807 248.119 40 249.5 40Z" fill="white"/>
<path d="M31.55 12.3313C32.6563 13.4375 32.6563 15.2188 31.55 16.3063L24.2563 23.6L28.2313 40.8313L25.5875 43.4938L18.3125 29.5625L11 36.875L11.675 41.5062L9.66876 43.4938L6.36876 37.5312L0.387512 34.2125L2.37501 32.1875L7.06251 32.8812L14.3188 25.625L0.387512 18.2937L3.05001 15.65L20.2813 19.625L27.575 12.3313C28.625 11.2438 30.5 11.2438 31.55 12.3313Z" fill="#2393FE"/>
</svg>
