<svg width="500" height="327" viewBox="0 0 500 327" fill="none" xmlns="http://www.w3.org/2000/svg">
<g clip-path="url(#clip0_35_64)">
<path d="M247.429 55.5667C255.806 55.5667 262.597 48.7862 262.597 40.4221C262.597 32.0579 255.806 25.2774 247.429 25.2774C239.052 25.2774 232.261 32.0579 232.261 40.4221C232.261 48.7862 239.052 55.5667 247.429 55.5667Z" fill="#FFAC24"/>
<path d="M281.377 33.2508C280.949 31.8504 280.12 30.6054 278.993 29.6691C277.865 28.7329 276.488 28.1463 275.031 27.9815C274.997 27.9787 274.963 27.9787 274.929 27.9815C274.888 27.9688 274.846 27.9593 274.804 27.9532C269.725 27.2952 264.079 28.8947 260.278 32.3773C258.867 33.6498 257.739 35.2032 256.966 36.9376C256.262 35.9768 255.333 35.202 254.261 34.6801C253.189 34.1583 252.006 33.9052 250.814 33.9428C249.277 34.0443 247.808 34.6167 246.609 35.582C245.409 36.5473 244.537 37.8585 244.111 39.3369C244.064 39.5175 244.077 39.7084 244.147 39.8811C244.218 40.0538 244.343 40.1991 244.503 40.2954C244.96 40.6856 245.503 40.9617 246.088 41.1008C247.343 41.3674 248.61 41.6113 249.877 41.8325C252.354 42.2636 254.844 42.6134 257.347 42.8819C259 43.0577 260.657 43.1976 262.318 43.3016C265.749 43.5171 269.197 43.5682 272.634 43.4604C274.338 43.4037 275.974 43.347 277.531 42.5983C278.665 42.0413 279.634 41.1987 280.343 40.1536C281.01 39.1484 281.448 38.0094 281.627 36.8167C281.805 35.6241 281.72 34.4069 281.377 33.2508Z" fill="#E6E6E6"/>
<path d="M250.172 55.3148C250.143 54.6803 250.037 54.0516 249.854 53.4431C249.424 52.0428 248.594 50.7982 247.466 49.8621C246.338 48.9261 244.96 48.3393 243.503 48.1738C243.471 48.171 243.438 48.171 243.406 48.1738C243.363 48.1617 243.32 48.1522 243.276 48.1455C240.465 47.8017 237.613 48.0944 234.931 49.0019C230.806 50.3802 227.188 53.1595 225.444 57.1299C224.738 56.1685 223.809 55.3933 222.736 54.8714C221.663 54.3496 220.479 54.0968 219.286 54.1351C217.748 54.2366 216.28 54.809 215.08 55.7743C213.881 56.7396 213.008 58.0508 212.582 59.5291C212.538 59.7098 212.552 59.8997 212.623 60.0719C212.693 60.244 212.816 60.3896 212.974 60.4877C213.432 60.8768 213.975 61.1527 214.559 61.2931C215.82 61.5597 217.082 61.8036 218.354 62.0248C220.831 62.4559 223.319 62.8057 225.819 63.0741C230.897 63.6184 236.006 63.8117 241.111 63.6526C242.81 63.5959 244.452 63.5392 246.008 62.7905C247.141 62.2334 248.108 61.3907 248.814 60.3459C249.81 58.8642 250.288 57.0955 250.172 55.3148Z" fill="#E6E6E6"/>
<path d="M447.721 239.081C447.939 249.407 446.512 259.702 443.493 269.581C443.387 269.939 443.26 270.298 443.134 270.657H380.898C381.787 266.283 383.2 262.031 385.105 257.993C390.284 247.017 398.74 237.624 407.09 228.295C418.59 215.441 429.815 202.692 431.591 185.975C436.15 192.914 439.788 200.413 442.415 208.286C439.199 209.475 436.247 211.282 433.726 213.604C433.029 214.259 432.289 215.209 432.648 216.116C432.986 216.876 433.917 217.129 434.741 217.298C436.728 217.678 438.715 218.058 440.703 218.417C442.267 218.733 443.852 219.029 445.438 219.325C446.831 225.822 447.596 232.438 447.721 239.081Z" fill="#F2F2F2"/>
<path d="M500 232.242C490.022 238.3 483.68 247.671 478.501 258.162C473.994 259.187 469.833 261.37 466.43 264.494C465.711 265.148 464.971 266.098 465.352 267.006C465.669 267.765 466.62 268.019 467.445 268.188C469.411 268.568 471.419 268.947 473.385 269.306C473.195 269.75 473.004 270.214 472.814 270.657H406.858C409.852 266.625 413.167 262.842 416.772 259.344C417.554 258.563 418.358 257.824 419.182 257.064C427.59 249.477 437.244 243.394 447.721 239.081C464.226 232.192 482.275 229.831 500 232.242Z" fill="#F2F2F2"/>
<path d="M417.85 270.657H359.124C358.803 265.962 358.831 261.249 359.208 256.558C361.555 227.577 377.346 199.969 401.171 183.252C398.127 194.08 399.691 204.845 402.862 215.652C402.418 215.8 401.974 215.926 401.573 216.095C398.356 217.285 395.405 219.092 392.884 221.414C392.186 222.068 391.447 223.018 391.806 223.926C392.123 224.686 393.074 224.939 393.899 225.108C395.886 225.488 397.873 225.868 399.839 226.227C401.425 226.543 403.01 226.839 404.596 227.155C405.335 227.282 406.075 227.43 406.815 227.577C406.921 227.831 406.984 228.063 407.09 228.295C410.811 238.532 414.869 248.853 416.772 259.344C417.243 261.976 417.568 264.633 417.745 267.301C417.808 268.42 417.85 269.538 417.85 270.657Z" fill="#F2F2F2"/>
<path d="M97.7847 239.081C98.0027 249.407 96.5755 259.702 93.5568 269.581C93.451 269.939 93.3241 270.298 93.1973 270.657H30.9614C31.8511 266.283 33.2635 262.031 35.1684 257.993C40.3475 247.017 48.8035 237.624 57.1538 228.295C68.6539 215.441 79.8792 202.692 81.655 185.975C86.2134 192.914 89.8516 200.413 92.4786 208.286C89.2624 209.475 86.3107 211.282 83.7901 213.604C83.0925 214.259 82.3525 215.209 82.712 216.116C83.0502 216.876 83.9803 217.129 84.8048 217.298C86.7919 217.678 88.7791 218.058 90.7663 218.417C92.3306 218.733 93.9161 219.029 95.5016 219.325C96.8951 225.822 97.6597 232.438 97.7847 239.081Z" fill="#F2F2F2"/>
<path d="M150.064 232.242C140.086 238.3 133.744 247.671 128.564 258.162C124.057 259.187 119.897 261.37 116.493 264.494C115.775 265.148 115.035 266.098 115.415 267.006C115.732 267.765 116.684 268.019 117.508 268.188C119.474 268.568 121.482 268.947 123.448 269.306C123.258 269.75 123.068 270.214 122.878 270.657H56.9213C59.9154 266.625 63.231 262.842 66.8359 259.344C67.6181 258.563 68.4214 257.824 69.2459 257.064C77.6537 249.477 87.3078 243.394 97.7847 239.081C114.29 232.192 132.338 229.831 150.064 232.242Z" fill="#F2F2F2"/>
<path d="M67.914 270.657H9.18736C8.86666 265.962 8.89495 261.249 9.272 256.558C11.6185 227.577 27.4099 199.969 51.2346 183.252C48.1905 194.08 49.7548 204.845 52.9258 215.652C52.4819 215.8 52.038 215.926 51.6363 216.095C48.4201 217.285 45.4684 219.092 42.9478 221.414C42.2502 222.068 41.5103 223.018 41.8697 223.926C42.1867 224.686 43.138 224.939 43.9625 225.108C45.9496 225.488 47.9368 225.868 49.9028 226.227C51.4883 226.543 53.0738 226.839 54.6593 227.155C55.3991 227.282 56.1391 227.43 56.8789 227.577C56.9846 227.831 57.0481 228.063 57.1538 228.295C60.8744 238.532 64.9332 248.853 66.8359 259.344C67.3068 261.976 67.6315 264.633 67.8084 267.301C67.8717 268.42 67.914 269.538 67.914 270.657Z" fill="#F2F2F2"/>
<path d="M286.544 246.039L339.018 250.69L339.58 250.742V27.1858C339.393 27.0554 339.205 26.9249 339.018 26.7945C328.082 19.157 316.252 12.8826 303.791 8.11096L301.11 45.0356L300.866 48.4161L298.213 85.0344L297.395 96.299L286.641 244.735L286.544 246.039Z" fill="#E6E6E6"/>
<path d="M156.778 23.0226C156.403 23.2608 156.028 23.4991 155.653 23.7486V250.742L156.778 250.639L208.684 246.039L208.587 244.735L197.833 96.299L197.015 85.0345L194.362 48.4161L194.118 45.0356L191.306 6.31296C179.18 10.5099 167.59 16.1184 156.778 23.0226Z" fill="#E6E6E6"/>
<path d="M155.653 23.7486C154.898 24.2364 154.142 24.7355 153.398 25.2403V253.838C153.398 259.55 156.79 264.337 161.323 265.557C162.064 265.757 162.828 265.858 163.595 265.857H332.201C332.966 265.858 333.729 265.757 334.468 265.557C336.153 265.09 337.68 264.177 338.887 262.914C341.19 260.456 342.448 257.203 342.398 253.838V29.2164C341.466 28.5301 340.529 27.8494 339.58 27.1858C339.393 27.0554 339.205 26.9249 339.018 26.7945V253.838C339.019 254.574 338.931 255.307 338.757 256.022C337.956 259.397 335.314 261.87 332.201 261.87H163.595C159.835 261.87 156.778 258.268 156.778 253.838V23.0226C156.403 23.2608 156.028 23.499 155.653 23.7486Z" fill="#E6E6E6"/>
<path d="M340.708 45.0379H155.087V48.4178H340.708V45.0379Z" fill="#E6E6E6"/>
<path d="M283.857 1.92281C282.733 1.64489 281.608 1.38397 280.472 1.14008V92.9185H283.857V1.92281Z" fill="#E6E6E6"/>
<path d="M215.324 0C214.194 0.209863 213.064 0.425401 211.939 0.657952V92.9185H215.324V0Z" fill="#E6E6E6"/>
<path d="M118.694 259.941C118.694 261.881 119.066 263.803 119.791 265.602C120.069 266.3 120.402 266.975 120.785 267.621C121.28 268.464 121.854 269.258 122.5 269.992C123.928 271.616 125.685 272.917 127.657 273.808C129.628 274.699 131.766 275.16 133.93 275.159H356.225C360.266 275.159 364.141 273.557 366.998 270.704C369.856 267.851 371.461 263.982 371.461 259.947C371.461 255.913 369.856 252.043 366.998 249.19C364.141 246.338 360.266 244.735 356.225 244.735H133.93C129.892 244.739 126.019 246.342 123.163 249.193C120.307 252.044 118.7 255.909 118.694 259.941Z" fill="#E6E6E6"/>
<path d="M155.087 96.3003L339.579 96.3003V85.0338L155.087 85.0338V96.3003Z" fill="#E6E6E6"/>
<path d="M255.232 87.8504H239.434C239.434 86.207 240.088 84.6309 241.252 83.4688C242.416 82.3067 243.995 81.6539 245.641 81.6539H249.026C249.841 81.6539 250.648 81.8141 251.401 82.1256C252.154 82.437 252.838 82.8934 253.414 83.4688C253.99 84.0442 254.448 84.7273 254.759 85.4791C255.071 86.2309 255.232 87.0367 255.232 87.8504H255.232Z" fill="#E6E6E6"/>
<path d="M0 268.631C4.93504 274.469 10.2728 279.956 15.9744 285.051H474.175C479.877 279.956 485.214 274.469 490.149 268.631H0Z" fill="#3F3D56"/>
<path d="M225.351 213.72V271.892H266.167V213.72C266.168 213.302 266.034 212.895 265.786 212.558C265.538 212.221 265.187 211.972 264.787 211.849C264.598 211.786 264.401 211.756 264.202 211.758H227.322C227.064 211.757 226.808 211.808 226.569 211.906C226.33 212.005 226.112 212.149 225.929 212.331C225.746 212.514 225.601 212.73 225.502 212.968C225.403 213.207 225.351 213.462 225.351 213.72ZM241.28 233.709C241.291 232.562 241.755 231.466 242.571 230.659C243.387 229.852 244.489 229.399 245.637 229.399C246.786 229.399 247.888 229.852 248.704 230.659C249.52 231.466 249.983 232.562 249.994 233.709V240.458C249.988 241.608 249.527 242.709 248.71 243.52C247.894 244.331 246.789 244.786 245.637 244.786C244.485 244.786 243.38 244.331 242.564 243.52C241.748 242.709 241.286 241.608 241.28 240.458V233.709Z" fill="#2F2E41"/>
<path d="M225.226 270.032V275.642C225.227 275.932 225.343 276.211 225.548 276.417C225.753 276.623 226.031 276.74 226.322 276.742H265.196C265.487 276.741 265.766 276.624 265.972 276.418C266.177 276.212 266.293 275.932 266.292 275.642V270.032H225.226Z" fill="#3F3D56"/>
<path d="M161.141 126.077V232.291C161.142 233.644 161.681 234.942 162.64 235.899C163.598 236.856 164.898 237.394 166.254 237.395H323.896C325.251 237.394 326.551 236.856 327.51 235.899C328.468 234.942 329.007 233.644 329.008 232.291V126.077C329.005 124.725 328.465 123.429 327.507 122.473C326.549 121.517 325.25 120.98 323.896 120.978H166.254C164.899 120.98 163.601 121.517 162.643 122.473C161.684 123.429 161.144 124.725 161.141 126.077Z" fill="#3F3D56"/>
<path d="M164.839 127.398V230.98C164.841 231.703 165.129 232.397 165.641 232.908C166.153 233.419 166.848 233.707 167.572 233.709H322.583C323.308 233.707 324.002 233.419 324.514 232.908C325.026 232.397 325.315 231.703 325.316 230.98V127.398C325.316 126.674 325.028 125.98 324.516 125.467C324.004 124.955 323.309 124.666 322.583 124.665H167.572C166.847 124.666 166.152 124.955 165.639 125.467C165.127 125.98 164.839 126.674 164.839 127.398Z" fill="#2393FE"/>
<path d="M196.447 278.063C196.605 278.261 196.806 278.42 197.034 278.529C197.262 278.638 197.512 278.694 197.765 278.693H289.987C290.239 278.693 290.488 278.636 290.716 278.528C290.943 278.419 291.144 278.262 291.303 278.066C291.462 277.871 291.575 277.642 291.634 277.397C291.694 277.153 291.698 276.898 291.646 276.651L290.214 269.862C290.155 269.585 290.027 269.327 289.843 269.112C289.658 268.897 289.423 268.732 289.158 268.631C288.966 268.556 288.762 268.517 288.555 268.518H199.191C198.985 268.517 198.781 268.556 198.589 268.631C198.324 268.732 198.088 268.897 197.904 269.112C197.719 269.327 197.592 269.585 197.532 269.862L196.101 276.651C196.05 276.897 196.054 277.152 196.114 277.396C196.174 277.641 196.288 277.869 196.447 278.063Z" fill="#2F2E41"/>
<path d="M285.337 271.442H287.623C287.776 271.442 287.9 271.318 287.9 271.165V270.017C287.9 269.864 287.776 269.74 287.623 269.74H285.337C285.184 269.74 285.06 269.864 285.06 270.017V271.165C285.06 271.318 285.184 271.442 285.337 271.442Z" fill="#3F3D56"/>
<path d="M279.657 271.442H281.942C282.096 271.442 282.22 271.318 282.22 271.165V270.017C282.22 269.864 282.096 269.74 281.942 269.74H279.657C279.503 269.74 279.379 269.864 279.379 270.017V271.165C279.379 271.318 279.503 271.442 279.657 271.442Z" fill="#3F3D56"/>
<path d="M273.976 271.442H276.262C276.415 271.442 276.539 271.318 276.539 271.165V270.017C276.539 269.864 276.415 269.74 276.262 269.74H273.976C273.823 269.74 273.699 269.864 273.699 270.017V271.165C273.699 271.318 273.823 271.442 273.976 271.442Z" fill="#3F3D56"/>
<path d="M268.295 271.442H270.581C270.734 271.442 270.858 271.318 270.858 271.165V270.017C270.858 269.864 270.734 269.74 270.581 269.74H268.295C268.142 269.74 268.018 269.864 268.018 270.017V271.165C268.018 271.318 268.142 271.442 268.295 271.442Z" fill="#3F3D56"/>
<path d="M262.614 271.442H264.9C265.053 271.442 265.177 271.318 265.177 271.165V270.017C265.177 269.864 265.053 269.74 264.9 269.74H262.614C262.461 269.74 262.337 269.864 262.337 270.017V271.165C262.337 271.318 262.461 271.442 262.614 271.442Z" fill="#3F3D56"/>
<path d="M256.933 271.442H259.219C259.372 271.442 259.497 271.318 259.497 271.165V270.017C259.497 269.864 259.372 269.74 259.219 269.74H256.933C256.78 269.74 256.656 269.864 256.656 270.017V271.165C256.656 271.318 256.78 271.442 256.933 271.442Z" fill="#3F3D56"/>
<path d="M251.253 271.442H253.538C253.691 271.442 253.816 271.318 253.816 271.165V270.017C253.816 269.864 253.691 269.74 253.538 269.74H251.253C251.099 269.74 250.975 269.864 250.975 270.017V271.165C250.975 271.318 251.099 271.442 251.253 271.442Z" fill="#3F3D56"/>
<path d="M245.572 271.442H247.858C248.011 271.442 248.135 271.318 248.135 271.165V270.017C248.135 269.864 248.011 269.74 247.858 269.74H245.572C245.419 269.74 245.295 269.864 245.295 270.017V271.165C245.295 271.318 245.419 271.442 245.572 271.442Z" fill="#3F3D56"/>
<path d="M239.891 271.442H242.177C242.33 271.442 242.454 271.318 242.454 271.165V270.017C242.454 269.864 242.33 269.74 242.177 269.74H239.891C239.738 269.74 239.614 269.864 239.614 270.017V271.165C239.614 271.318 239.738 271.442 239.891 271.442Z" fill="#3F3D56"/>
<path d="M234.21 271.442H236.496C236.649 271.442 236.773 271.318 236.773 271.165V270.017C236.773 269.864 236.649 269.74 236.496 269.74H234.21C234.057 269.74 233.933 269.864 233.933 270.017V271.165C233.933 271.318 234.057 271.442 234.21 271.442Z" fill="#3F3D56"/>
<path d="M228.53 271.442H230.815C230.968 271.442 231.093 271.318 231.093 271.165V270.017C231.093 269.864 230.968 269.74 230.815 269.74H228.53C228.376 269.74 228.252 269.864 228.252 270.017V271.165C228.252 271.318 228.376 271.442 228.53 271.442Z" fill="#3F3D56"/>
<path d="M222.849 271.442H225.135C225.288 271.442 225.412 271.318 225.412 271.165V270.017C225.412 269.864 225.288 269.74 225.135 269.74H222.849C222.696 269.74 222.571 269.864 222.571 270.017V271.165C222.571 271.318 222.696 271.442 222.849 271.442Z" fill="#3F3D56"/>
<path d="M217.168 271.442H219.454C219.607 271.442 219.731 271.318 219.731 271.165V270.017C219.731 269.864 219.607 269.74 219.454 269.74H217.168C217.015 269.74 216.891 269.864 216.891 270.017V271.165C216.891 271.318 217.015 271.442 217.168 271.442Z" fill="#3F3D56"/>
<path d="M211.487 271.442H213.773C213.926 271.442 214.05 271.318 214.05 271.165V270.017C214.05 269.864 213.926 269.74 213.773 269.74H211.487C211.334 269.74 211.21 269.864 211.21 270.017V271.165C211.21 271.318 211.334 271.442 211.487 271.442Z" fill="#3F3D56"/>
<path d="M205.806 271.442H208.092C208.245 271.442 208.369 271.318 208.369 271.165V270.017C208.369 269.864 208.245 269.74 208.092 269.74H205.806C205.653 269.74 205.529 269.864 205.529 270.017V271.165C205.529 271.318 205.653 271.442 205.806 271.442Z" fill="#3F3D56"/>
<path d="M200.126 271.442H202.411C202.565 271.442 202.689 271.318 202.689 271.165V270.017C202.689 269.864 202.565 269.74 202.411 269.74H200.126C199.972 269.74 199.848 269.864 199.848 270.017V271.165C199.848 271.318 199.972 271.442 200.126 271.442Z" fill="#3F3D56"/>
<path d="M285.404 274.278H287.69C287.843 274.278 287.968 274.154 287.968 274.001V272.853C287.968 272.7 287.843 272.576 287.69 272.576H285.404C285.251 272.576 285.127 272.7 285.127 272.853V274.001C285.127 274.154 285.251 274.278 285.404 274.278Z" fill="#3F3D56"/>
<path d="M279.724 274.278H282.01C282.163 274.278 282.287 274.154 282.287 274.001V272.853C282.287 272.7 282.163 272.576 282.01 272.576H279.724C279.571 272.576 279.446 272.7 279.446 272.853V274.001C279.446 274.154 279.571 274.278 279.724 274.278Z" fill="#3F3D56"/>
<path d="M274.043 274.278H276.329C276.482 274.278 276.606 274.154 276.606 274.001V272.853C276.606 272.7 276.482 272.576 276.329 272.576H274.043C273.89 272.576 273.766 272.7 273.766 272.853V274.001C273.766 274.154 273.89 274.278 274.043 274.278Z" fill="#3F3D56"/>
<path d="M268.362 274.278H270.648C270.801 274.278 270.925 274.154 270.925 274.001V272.853C270.925 272.7 270.801 272.576 270.648 272.576H268.362C268.209 272.576 268.085 272.7 268.085 272.853V274.001C268.085 274.154 268.209 274.278 268.362 274.278Z" fill="#3F3D56"/>
<path d="M262.681 274.278H264.967C265.12 274.278 265.244 274.154 265.244 274.001V272.853C265.244 272.7 265.12 272.576 264.967 272.576H262.681C262.528 272.576 262.404 272.7 262.404 272.853V274.001C262.404 274.154 262.528 274.278 262.681 274.278Z" fill="#3F3D56"/>
<path d="M257.001 274.278H259.286C259.44 274.278 259.564 274.154 259.564 274.001V272.853C259.564 272.7 259.44 272.576 259.286 272.576H257.001C256.848 272.576 256.723 272.7 256.723 272.853V274.001C256.723 274.154 256.848 274.278 257.001 274.278Z" fill="#3F3D56"/>
<path d="M251.32 274.278H253.606C253.759 274.278 253.883 274.154 253.883 274.001V272.853C253.883 272.7 253.759 272.576 253.606 272.576H251.32C251.167 272.576 251.043 272.7 251.043 272.853V274.001C251.043 274.154 251.167 274.278 251.32 274.278Z" fill="#3F3D56"/>
<path d="M245.639 274.278H247.925C248.078 274.278 248.202 274.154 248.202 274.001V272.853C248.202 272.7 248.078 272.576 247.925 272.576H245.639C245.486 272.576 245.362 272.7 245.362 272.853V274.001C245.362 274.154 245.486 274.278 245.639 274.278Z" fill="#3F3D56"/>
<path d="M239.958 274.278H242.244C242.397 274.278 242.521 274.154 242.521 274.001V272.853C242.521 272.7 242.397 272.576 242.244 272.576H239.958C239.805 272.576 239.681 272.7 239.681 272.853V274.001C239.681 274.154 239.805 274.278 239.958 274.278Z" fill="#3F3D56"/>
<path d="M234.277 274.278H236.563C236.716 274.278 236.841 274.154 236.841 274.001V272.853C236.841 272.7 236.716 272.576 236.563 272.576H234.277C234.124 272.576 234 272.7 234 272.853V274.001C234 274.154 234.124 274.278 234.277 274.278Z" fill="#3F3D56"/>
<path d="M228.597 274.278H230.882C231.036 274.278 231.16 274.154 231.16 274.001V272.853C231.16 272.7 231.036 272.576 230.882 272.576H228.597C228.444 272.576 228.319 272.7 228.319 272.853V274.001C228.319 274.154 228.444 274.278 228.597 274.278Z" fill="#3F3D56"/>
<path d="M222.916 274.278H225.202C225.355 274.278 225.479 274.154 225.479 274.001V272.853C225.479 272.7 225.355 272.576 225.202 272.576H222.916C222.763 272.576 222.639 272.7 222.639 272.853V274.001C222.639 274.154 222.763 274.278 222.916 274.278Z" fill="#3F3D56"/>
<path d="M217.235 274.278H219.521C219.674 274.278 219.798 274.154 219.798 274.001V272.853C219.798 272.7 219.674 272.576 219.521 272.576H217.235C217.082 272.576 216.958 272.7 216.958 272.853V274.001C216.958 274.154 217.082 274.278 217.235 274.278Z" fill="#3F3D56"/>
<path d="M211.554 274.278H213.84C213.993 274.278 214.117 274.154 214.117 274.001V272.853C214.117 272.7 213.993 272.576 213.84 272.576H211.554C211.401 272.576 211.277 272.7 211.277 272.853V274.001C211.277 274.154 211.401 274.278 211.554 274.278Z" fill="#3F3D56"/>
<path d="M205.874 274.278H208.159C208.312 274.278 208.437 274.154 208.437 274.001V272.853C208.437 272.7 208.312 272.576 208.159 272.576H205.874C205.72 272.576 205.596 272.7 205.596 272.853V274.001C205.596 274.154 205.72 274.278 205.874 274.278Z" fill="#3F3D56"/>
<path d="M200.193 274.278H202.479C202.632 274.278 202.756 274.154 202.756 274.001V272.853C202.756 272.7 202.632 272.576 202.479 272.576H200.193C200.04 272.576 199.915 272.7 199.915 272.853V274.001C199.915 274.154 200.04 274.278 200.193 274.278Z" fill="#3F3D56"/>
<path d="M238.254 277.681H260.422C260.576 277.681 260.7 277.557 260.7 277.404V276.256C260.7 276.103 260.576 275.979 260.422 275.979H238.254C238.101 275.979 237.977 276.103 237.977 276.256V277.404C237.977 277.557 238.101 277.681 238.254 277.681Z" fill="#3F3D56"/>
<path d="M175.361 138.933H320.405C320.556 138.93 320.699 138.868 320.805 138.76C320.91 138.653 320.969 138.508 320.969 138.358C320.969 138.207 320.91 138.062 320.805 137.955C320.699 137.847 320.556 137.785 320.405 137.782H175.361C175.21 137.785 175.067 137.847 174.961 137.955C174.856 138.062 174.797 138.207 174.797 138.358C174.797 138.508 174.856 138.653 174.961 138.76C175.067 138.868 175.21 138.93 175.361 138.933Z" fill="#3F3D56"/>
<path d="M310.532 134.841C312.398 134.841 313.912 133.296 313.912 131.391C313.912 129.485 312.398 127.941 310.532 127.941C308.665 127.941 307.151 129.485 307.151 131.391C307.151 133.296 308.665 134.841 310.532 134.841Z" fill="#3F3D56"/>
<path d="M298.854 134.841C300.721 134.841 302.234 133.296 302.234 131.391C302.234 129.485 300.721 127.941 298.854 127.941C296.987 127.941 295.474 129.485 295.474 131.391C295.474 133.296 296.987 134.841 298.854 134.841Z" fill="#3F3D56"/>
<path d="M287.177 134.841C289.044 134.841 290.557 133.296 290.557 131.391C290.557 129.485 289.044 127.941 287.177 127.941C285.31 127.941 283.796 129.485 283.796 131.391C283.796 133.296 285.31 134.841 287.177 134.841Z" fill="#3F3D56"/>
<path d="M181.774 129.423C181.773 129.505 181.789 129.586 181.82 129.661C181.851 129.737 181.896 129.805 181.954 129.863C182.011 129.921 182.08 129.967 182.155 129.999C182.23 130.031 182.311 130.047 182.393 130.047H190.687C190.851 130.044 191.007 129.976 191.121 129.859C191.236 129.742 191.3 129.584 191.3 129.421C191.3 129.257 191.236 129.1 191.121 128.982C191.007 128.865 190.851 128.798 190.687 128.794H182.393C182.227 128.796 182.069 128.863 181.953 128.981C181.837 129.099 181.773 129.258 181.774 129.423Z" fill="#3F3D56"/>
<path d="M181.774 131.777C181.773 131.859 181.789 131.94 181.82 132.015C181.851 132.091 181.896 132.159 181.954 132.217C182.011 132.275 182.08 132.321 182.155 132.353C182.23 132.384 182.311 132.401 182.393 132.401H190.687C190.851 132.398 191.007 132.33 191.122 132.213C191.237 132.096 191.301 131.938 191.301 131.774C191.301 131.611 191.237 131.453 191.122 131.336C191.007 131.219 190.851 131.151 190.687 131.148H182.393C182.227 131.15 182.069 131.217 181.953 131.335C181.837 131.453 181.773 131.612 181.774 131.777Z" fill="#3F3D56"/>
<path d="M181.774 134.125C181.773 134.291 181.837 134.45 181.953 134.568C182.069 134.686 182.227 134.753 182.393 134.755H190.687C190.851 134.751 191.007 134.684 191.121 134.566C191.236 134.449 191.3 134.292 191.3 134.128C191.3 133.965 191.236 133.807 191.121 133.69C191.007 133.573 190.851 133.505 190.687 133.502H182.393C182.311 133.502 182.23 133.518 182.155 133.55C182.08 133.581 182.011 133.628 181.954 133.685C181.896 133.743 181.851 133.812 181.82 133.888C181.789 133.963 181.773 134.044 181.774 134.125Z" fill="#3F3D56"/>
<path d="M184.337 152.317H181.357C180.453 152.317 179.721 153.049 179.721 153.951C179.721 154.853 180.453 155.584 181.357 155.584H184.337C185.241 155.584 185.973 154.853 185.973 153.951C185.973 153.049 185.241 152.317 184.337 152.317Z" fill="#E6E6E6"/>
<path d="M218.422 152.317H215.441C214.538 152.317 213.805 153.049 213.805 153.951C213.805 154.853 214.538 155.584 215.441 155.584H218.422C219.325 155.584 220.058 154.853 220.058 153.951C220.058 153.049 219.325 152.317 218.422 152.317Z" fill="#E6E6E6"/>
<path d="M228.079 152.317H225.099C224.195 152.317 223.463 153.049 223.463 153.951C223.463 154.853 224.195 155.584 225.099 155.584H228.079C228.983 155.584 229.715 154.853 229.715 153.951C229.715 153.049 228.983 152.317 228.079 152.317Z" fill="#E6E6E6"/>
<path d="M209.15 152.045H190.628C189.724 152.045 188.992 152.776 188.992 153.679C188.992 154.581 189.724 155.312 190.628 155.312H209.15C210.054 155.312 210.786 154.581 210.786 153.679C210.786 152.776 210.054 152.045 209.15 152.045Z" fill="#E6E6E6"/>
<path d="M254.597 152.045H236.074C235.171 152.045 234.438 152.776 234.438 153.679C234.438 154.581 235.171 155.312 236.074 155.312H254.597C255.5 155.312 256.233 154.581 256.233 153.679C256.233 152.776 255.5 152.045 254.597 152.045Z" fill="#E6E6E6"/>
<path d="M193.426 159.691H190.446C189.542 159.691 188.81 160.422 188.81 161.324C188.81 162.227 189.542 162.958 190.446 162.958H193.426C194.33 162.958 195.062 162.227 195.062 161.324C195.062 160.422 194.33 159.691 193.426 159.691Z" fill="#E6E6E6"/>
<path d="M227.511 159.691H224.531C223.627 159.691 222.895 160.422 222.895 161.324C222.895 162.227 223.627 162.958 224.531 162.958H227.511C228.414 162.958 229.147 162.227 229.147 161.324C229.147 160.422 228.414 159.691 227.511 159.691Z" fill="#E6E6E6"/>
<path d="M237.168 159.691H234.188C233.284 159.691 232.552 160.422 232.552 161.324C232.552 162.227 233.284 162.958 234.188 162.958H237.168C238.072 162.958 238.804 162.227 238.804 161.324C238.804 160.422 238.072 159.691 237.168 159.691Z" fill="#E6E6E6"/>
<path d="M218.24 159.419H199.717C198.814 159.419 198.081 160.15 198.081 161.052C198.081 161.954 198.814 162.686 199.717 162.686H218.24C219.143 162.686 219.876 161.954 219.876 161.052C219.876 160.15 219.143 159.419 218.24 159.419Z" fill="#E6E6E6"/>
<path d="M263.686 159.419H245.163C244.26 159.419 243.527 160.15 243.527 161.052C243.527 161.954 244.26 162.686 245.163 162.686H263.686C264.59 162.686 265.322 161.954 265.322 161.052C265.322 160.15 264.59 159.419 263.686 159.419Z" fill="#E6E6E6"/>
<path d="M202.515 167.065H199.535C198.632 167.065 197.899 167.796 197.899 168.698C197.899 169.6 198.632 170.332 199.535 170.332H202.515C203.419 170.332 204.151 169.6 204.151 168.698C204.151 167.796 203.419 167.065 202.515 167.065Z" fill="#E6E6E6"/>
<path d="M236.6 167.065H233.62C232.716 167.065 231.984 167.796 231.984 168.698C231.984 169.6 232.716 170.332 233.62 170.332H236.6C237.504 170.332 238.236 169.6 238.236 168.698C238.236 167.796 237.504 167.065 236.6 167.065Z" fill="#E6E6E6"/>
<path d="M246.257 167.065H243.277C242.374 167.065 241.641 167.796 241.641 168.698C241.641 169.6 242.374 170.332 243.277 170.332H246.257C247.161 170.332 247.894 169.6 247.894 168.698C247.894 167.796 247.161 167.065 246.257 167.065Z" fill="#E6E6E6"/>
<path d="M227.329 166.792H208.806C207.903 166.792 207.17 167.524 207.17 168.426C207.17 169.328 207.903 170.059 208.806 170.059H227.329C228.233 170.059 228.965 169.328 228.965 168.426C228.965 167.524 228.233 166.792 227.329 166.792Z" fill="#E6E6E6"/>
<path d="M272.775 166.792H254.253C253.349 166.792 252.617 167.524 252.617 168.426C252.617 169.328 253.349 170.059 254.253 170.059H272.775C273.679 170.059 274.411 169.328 274.411 168.426C274.411 167.524 273.679 166.792 272.775 166.792Z" fill="#E6E6E6"/>
<path d="M211.605 174.438H208.624C207.721 174.438 206.988 175.169 206.988 176.072C206.988 176.974 207.721 177.705 208.624 177.705H211.605C212.508 177.705 213.241 176.974 213.241 176.072C213.241 175.169 212.508 174.438 211.605 174.438Z" fill="#E6E6E6"/>
<path d="M245.689 174.438H242.709C241.806 174.438 241.073 175.169 241.073 176.072C241.073 176.974 241.806 177.705 242.709 177.705H245.689C246.593 177.705 247.325 176.974 247.325 176.072C247.325 175.169 246.593 174.438 245.689 174.438Z" fill="#E6E6E6"/>
<path d="M255.347 174.438H252.367C251.463 174.438 250.73 175.169 250.73 176.072C250.73 176.974 251.463 177.705 252.367 177.705H255.347C256.25 177.705 256.983 176.974 256.983 176.072C256.983 175.169 256.25 174.438 255.347 174.438Z" fill="#E6E6E6"/>
<path d="M236.418 174.166H217.896C216.992 174.166 216.26 174.897 216.26 175.799C216.26 176.701 216.992 177.433 217.896 177.433H236.418C237.322 177.433 238.054 176.701 238.054 175.799C238.054 174.897 237.322 174.166 236.418 174.166Z" fill="#E6E6E6"/>
<path d="M218.422 203.759H215.441C214.538 203.759 213.805 204.49 213.805 205.392C213.805 206.294 214.538 207.026 215.441 207.026H218.422C219.325 207.026 220.058 206.294 220.058 205.392C220.058 204.49 219.325 203.759 218.422 203.759Z" fill="#E6E6E6"/>
<path d="M228.079 203.759H225.099C224.195 203.759 223.463 204.49 223.463 205.392C223.463 206.294 224.195 207.026 225.099 207.026H228.079C228.983 207.026 229.715 206.294 229.715 205.392C229.715 204.49 228.983 203.759 228.079 203.759Z" fill="#E6E6E6"/>
<path d="M254.597 204.031H236.074C235.171 204.031 234.438 204.762 234.438 205.665C234.438 206.567 235.171 207.298 236.074 207.298H254.597C255.5 207.298 256.233 206.567 256.233 205.665C256.233 204.762 255.5 204.031 254.597 204.031Z" fill="#E6E6E6"/>
<path d="M184.337 203.759H181.357C180.453 203.759 179.721 204.49 179.721 205.392C179.721 206.294 180.453 207.026 181.357 207.026H184.337C185.241 207.026 185.973 206.294 185.973 205.392C185.973 204.49 185.241 203.759 184.337 203.759Z" fill="#E6E6E6"/>
<path d="M209.15 204.031H190.628C189.724 204.031 188.992 204.762 188.992 205.665C188.992 206.567 189.724 207.298 190.628 207.298H209.15C210.054 207.298 210.786 206.567 210.786 205.665C210.786 204.762 210.054 204.031 209.15 204.031Z" fill="#E6E6E6"/>
<path d="M193.426 196.385H190.446C189.542 196.385 188.81 197.116 188.81 198.019C188.81 198.921 189.542 199.652 190.446 199.652H193.426C194.33 199.652 195.062 198.921 195.062 198.019C195.062 197.116 194.33 196.385 193.426 196.385Z" fill="#E6E6E6"/>
<path d="M227.511 196.385H224.531C223.627 196.385 222.895 197.116 222.895 198.019C222.895 198.921 223.627 199.652 224.531 199.652H227.511C228.414 199.652 229.147 198.921 229.147 198.019C229.147 197.116 228.414 196.385 227.511 196.385Z" fill="#E6E6E6"/>
<path d="M237.168 196.385H234.188C233.284 196.385 232.552 197.116 232.552 198.019C232.552 198.921 233.284 199.652 234.188 199.652H237.168C238.072 199.652 238.804 198.921 238.804 198.019C238.804 197.116 238.072 196.385 237.168 196.385Z" fill="#E6E6E6"/>
<path d="M218.24 196.657H199.717C198.814 196.657 198.081 197.389 198.081 198.291C198.081 199.193 198.814 199.924 199.717 199.924H218.24C219.143 199.924 219.876 199.193 219.876 198.291C219.876 197.389 219.143 196.657 218.24 196.657Z" fill="#E6E6E6"/>
<path d="M202.515 189.011H199.535C198.632 189.011 197.899 189.743 197.899 190.645C197.899 191.547 198.632 192.278 199.535 192.278H202.515C203.419 192.278 204.151 191.547 204.151 190.645C204.151 189.743 203.419 189.011 202.515 189.011Z" fill="#E6E6E6"/>
<path d="M236.6 189.011H233.62C232.716 189.011 231.984 189.743 231.984 190.645C231.984 191.547 232.716 192.278 233.62 192.278H236.6C237.504 192.278 238.236 191.547 238.236 190.645C238.236 189.743 237.504 189.011 236.6 189.011Z" fill="#E6E6E6"/>
<path d="M246.257 189.011H243.277C242.374 189.011 241.641 189.743 241.641 190.645C241.641 191.547 242.374 192.278 243.277 192.278H246.257C247.161 192.278 247.894 191.547 247.894 190.645C247.894 189.743 247.161 189.011 246.257 189.011Z" fill="#E6E6E6"/>
<path d="M227.329 189.284H208.806C207.903 189.284 207.17 190.015 207.17 190.917C207.17 191.82 207.903 192.551 208.806 192.551H227.329C228.233 192.551 228.965 191.82 228.965 190.917C228.965 190.015 228.233 189.284 227.329 189.284Z" fill="#E6E6E6"/>
<path d="M211.605 181.638H208.624C207.721 181.638 206.988 182.369 206.988 183.271C206.988 184.174 207.721 184.905 208.624 184.905H211.605C212.508 184.905 213.241 184.174 213.241 183.271C213.241 182.369 212.508 181.638 211.605 181.638Z" fill="#E6E6E6"/>
<path d="M245.689 181.638H242.709C241.806 181.638 241.073 182.369 241.073 183.271C241.073 184.174 241.806 184.905 242.709 184.905H245.689C246.593 184.905 247.325 184.174 247.325 183.271C247.325 182.369 246.593 181.638 245.689 181.638Z" fill="#E6E6E6"/>
<path d="M255.347 181.638H252.367C251.463 181.638 250.73 182.369 250.73 183.271C250.73 184.174 251.463 184.905 252.367 184.905H255.347C256.25 184.905 256.983 184.174 256.983 183.271C256.983 182.369 256.25 181.638 255.347 181.638Z" fill="#E6E6E6"/>
<path d="M236.418 181.91H217.896C216.992 181.91 216.26 182.642 216.26 183.544C216.26 184.446 216.992 185.177 217.896 185.177H236.418C237.322 185.177 238.054 184.446 238.054 183.544C238.054 182.642 237.322 181.91 236.418 181.91Z" fill="#E6E6E6"/>
<path d="M198.777 309.663C198.652 309.726 198.527 309.788 198.403 309.845C197.613 310.236 196.818 310.622 196.017 311.002C193.619 312.142 191.192 313.225 188.734 314.252C182.267 316.953 175.631 319.232 168.868 321.075C167.732 314.002 166.63 297.321 165.573 285.053C165.374 282.744 165.176 280.594 164.977 278.694C164.788 276.2 164.429 273.721 163.903 271.275C163.852 271.084 163.777 270.899 163.682 270.725C163.789 271.706 163.903 274.633 164.011 278.694C164.068 280.594 164.119 282.744 164.176 285.053C164.443 296.862 164.721 312.93 164.999 322.079C164.21 322.272 163.415 322.465 162.619 322.647C162.119 322.766 161.614 322.879 161.108 322.987C160.495 323.123 159.881 323.259 159.268 323.384C158.626 323.52 157.984 323.651 157.342 323.775C146.852 325.833 136.186 326.866 125.495 326.861C124.785 326.861 124.081 326.855 123.371 326.849C123.155 326.849 122.939 326.844 122.717 326.838C122.093 326.827 121.445 326.815 120.786 326.798C108.152 326.45 95.6016 324.643 83.3837 321.416L83.8779 285.053L83.9631 278.694L83.9972 276.284C83.7158 277.059 83.5474 277.871 83.4973 278.694C83.2984 280.243 83.0939 282.438 82.8894 285.053C82.1112 295.126 81.3102 311.376 80.4808 320.622C70.6587 317.831 63.4782 315.284 54.5025 310.803C54.156 310.633 53.8038 310.457 53.4573 310.282C53.5198 309.845 53.5879 309.408 53.6504 308.96C54.6673 301.904 53.4686 292.721 54.5934 285.053C55.4512 279.137 56.3374 273.453 57.2293 268.632C58.3087 262.83 59.405 258.269 60.4901 256.052C61.7399 253.494 62.9896 250.975 64.1997 248.565C64.7223 247.527 65.2355 246.508 65.7391 245.507C66.0118 244.969 66.2845 244.435 66.5515 243.914C67.7672 241.537 68.9147 239.342 69.9656 237.397C70.7041 236.03 71.3858 234.793 72.0107 233.71C72.7436 232.434 73.3912 231.379 73.9252 230.579C77.8693 224.609 83.738 220.165 90.5585 217.981L90.7289 217.936L90.8937 218.004L91.0811 218.089L101.909 214.136L106.743 202.514L131.574 200.988L135.584 204.034L137.635 205.594L139.822 207.256L143.844 210.313L144.986 210.664L146.685 211.186L158.302 214.748L158.421 214.697L158.592 214.743C164.798 216.726 170.231 220.592 174.134 225.803C174.52 226.302 174.878 226.818 175.225 227.34C176.168 228.735 177.44 230.942 178.94 233.71C179.559 234.85 180.213 236.086 180.9 237.397C181.315 238.185 184.894 249.336 188.376 260.725C191.631 271.389 194.801 282.262 195.216 285.053C195.289 285.569 195.369 286.091 195.443 286.607C195.914 289.834 196.38 293.084 196.829 296.255C197.494 300.957 198.141 305.494 198.76 309.55C198.766 309.59 198.772 309.624 198.777 309.663Z" fill="#3F3D56"/>
<path opacity="0.2" d="M172.463 268.606L167.636 250.006L163.374 266.056L172.463 268.606Z" fill="black"/>
<path d="M8.99223 268.39C9.24251 269.118 9.71728 269.748 10.3484 270.189C10.9794 270.63 11.7344 270.861 12.5047 270.847L27.5542 270.46C28.3302 270.445 29.0805 270.18 29.6929 269.704C30.3053 269.227 30.7469 268.566 30.9517 267.819L33.0814 245.081C33.837 245.423 34.6595 245.592 35.4889 245.575C36.944 245.539 38.3251 244.927 39.3282 243.873C40.3313 242.82 40.8743 241.412 40.8378 239.96C40.8013 238.507 40.1882 237.128 39.1334 236.126C38.0786 235.125 36.6686 234.582 35.2134 234.619C34.8819 234.618 34.5513 234.652 34.2271 234.721C33.8746 234.34 33.4461 234.038 32.9692 233.832C32.4923 233.627 31.9776 233.523 31.4583 233.528L8.3088 234.125C8.11677 234.132 7.92571 234.156 7.73777 234.196C7.2301 234.291 6.74861 234.493 6.32567 234.788C5.90274 235.084 5.54819 235.467 5.28589 235.911C5.02359 236.356 4.85963 236.851 4.80505 237.363C4.75046 237.876 4.80651 238.395 4.96943 238.884L8.99223 268.39ZM33.5181 243.537L35.0336 238.119C35.206 237.493 35.2099 236.833 35.0451 236.205C35.1187 236.205 35.1835 236.17 35.2571 236.17C36.2961 236.149 37.3013 236.539 38.0523 237.257C38.8032 237.974 39.2385 238.96 39.2629 239.997C39.2872 241.034 38.8985 242.039 38.1821 242.791C37.4656 243.543 36.4798 243.98 35.4409 244.007C34.7691 244.028 34.1044 243.866 33.5181 243.537Z" fill="#2F2E41"/>
<path d="M7.73779 234.196C8.23099 237.012 13.7759 238.991 20.4433 238.647C26.5745 238.365 31.5876 236.216 32.506 233.668C32.1661 233.568 31.8127 233.521 31.4583 233.528L8.30882 234.125C8.11679 234.132 7.92573 234.156 7.73779 234.196Z" fill="#3F3D56"/>
<path d="M21.6654 255.896C21.6959 255.888 21.7248 255.876 21.7511 255.858L25.0194 253.722C25.0589 253.697 25.0913 253.662 25.1138 253.62C25.1363 253.579 25.1481 253.532 25.1481 253.485C25.1481 253.438 25.1363 253.392 25.1139 253.35C25.0915 253.309 25.059 253.274 25.0195 253.248L21.6225 251.027C21.5914 251.006 21.5564 250.992 21.5197 250.985C21.483 250.978 21.4453 250.978 21.4087 250.985C21.372 250.993 21.3373 251.008 21.3064 251.028C21.2754 251.049 21.249 251.076 21.2285 251.108C21.208 251.139 21.1939 251.174 21.1869 251.21C21.18 251.247 21.1804 251.285 21.1881 251.321C21.1958 251.358 21.2106 251.392 21.2318 251.423C21.2529 251.454 21.2799 251.48 21.3113 251.501L24.3453 253.485L21.4402 255.384C21.3839 255.42 21.3425 255.476 21.3234 255.54C21.3042 255.605 21.3086 255.674 21.3356 255.735C21.3626 255.796 21.4105 255.846 21.4709 255.876C21.5313 255.905 21.6002 255.912 21.6654 255.896H21.6654Z" fill="#2393FE"/>
<path d="M16.5033 256.134C16.5581 256.12 16.6076 256.09 16.6453 256.048C16.683 256.006 16.7073 255.953 16.715 255.897C16.7227 255.841 16.7135 255.784 16.6885 255.734C16.6635 255.683 16.624 255.641 16.5749 255.613L13.5624 253.888L16.4741 251.729C16.504 251.707 16.5293 251.679 16.5484 251.647C16.5675 251.615 16.5802 251.579 16.5856 251.543C16.5911 251.506 16.5892 251.468 16.5801 251.432C16.571 251.396 16.5549 251.362 16.5326 251.332C16.5104 251.302 16.4825 251.277 16.4505 251.258C16.4185 251.239 16.3831 251.226 16.3462 251.221C16.3093 251.216 16.2717 251.217 16.2356 251.226C16.1995 251.236 16.1655 251.252 16.1355 251.274L12.8755 253.692C12.8377 253.72 12.8074 253.757 12.7874 253.799C12.7675 253.842 12.7585 253.889 12.7612 253.936C12.764 253.983 12.7785 254.028 12.8033 254.068C12.8281 254.108 12.8626 254.142 12.9035 254.165L16.2922 256.105C16.3561 256.141 16.4318 256.152 16.5033 256.134Z" fill="#2393FE"/>
<path d="M21.3403 257.768C21.3678 257.761 21.394 257.75 21.4181 257.735C21.45 257.716 21.4778 257.69 21.4999 257.66C21.5219 257.63 21.5378 257.596 21.5466 257.56C21.5555 257.524 21.5571 257.486 21.5514 257.449C21.5456 257.412 21.5327 257.377 21.5133 257.345L16.8803 249.74C16.8409 249.676 16.7778 249.63 16.7047 249.613C16.6317 249.595 16.5546 249.607 16.4905 249.646C16.4263 249.685 16.3802 249.748 16.3623 249.821C16.3444 249.894 16.3562 249.971 16.395 250.035L21.0279 257.64C21.0595 257.692 21.1069 257.732 21.1631 257.755C21.2194 257.778 21.2814 257.783 21.3403 257.768Z" fill="#2393FE"/>
<path d="M446.026 310.28C445.68 310.456 445.327 310.632 444.981 310.802C436.005 315.283 428.825 317.83 419.003 320.62C418.173 311.375 417.372 295.125 416.594 285.051C416.39 282.437 416.185 280.242 415.986 278.693C415.936 277.87 415.768 277.058 415.486 276.282L415.52 278.693L415.606 285.051L416.1 321.414C403.882 324.642 391.331 326.448 378.698 326.797C378.039 326.814 377.391 326.826 376.766 326.837C376.545 326.843 376.329 326.848 376.113 326.848C375.403 326.854 374.698 326.86 373.988 326.86C360.675 326.869 347.409 325.264 334.484 322.078C334.762 312.929 335.041 296.86 335.308 285.051C335.365 282.743 335.416 280.593 335.472 278.693C335.58 274.632 335.694 271.705 335.802 270.724C335.706 270.898 335.632 271.083 335.58 271.274C335.054 273.72 334.696 276.199 334.507 278.693C334.308 280.593 334.109 282.743 333.91 285.051C332.854 297.32 331.752 314.001 330.615 321.074C323.853 319.231 317.217 316.952 310.75 314.251C307.341 312.833 303.993 311.303 300.706 309.662C301.331 305.578 301.984 301.001 302.655 296.254C303.177 292.572 303.717 288.789 304.268 285.051C305.12 279.277 334.069 216.925 340.892 214.741L341.062 214.696L341.182 214.747L352.799 211.185L354.497 210.663L355.639 210.312L359.661 207.254L361.848 205.593L363.899 204.033L367.91 200.987L392.74 202.513L397.575 214.135L408.402 218.088L408.59 218.003L408.755 217.935L408.925 217.98C415.746 220.164 421.614 224.608 425.558 230.578C426.092 231.377 426.74 232.432 427.473 233.709C428.098 234.792 428.779 236.028 429.518 237.395C430.569 239.341 431.716 241.536 432.932 243.912C433.199 244.434 433.472 244.967 433.744 245.506C434.25 246.505 434.763 247.524 435.284 248.563C436.494 250.974 437.744 253.492 438.993 256.05C440.078 258.268 441.175 262.828 442.254 268.631C443.146 273.452 444.032 279.135 444.89 285.051C446.015 292.72 444.816 301.903 445.833 308.959C445.896 309.407 445.964 309.844 446.026 310.28Z" fill="#3F3D56"/>
<path d="M373.201 196.815C389.151 196.815 402.081 183.905 402.081 167.981C402.081 152.056 389.151 139.146 373.201 139.146C357.252 139.146 344.322 152.056 344.322 167.981C344.322 183.905 357.252 196.815 373.201 196.815Z" fill="#FFB6B6"/>
<path opacity="0.2" d="M327.019 268.606L331.846 250.006L336.109 266.056L327.019 268.606Z" fill="black"/>
<path d="M455.468 256.487C453.741 280.242 455.53 290.701 445.998 310.286C437.325 314.524 428.291 317.983 419.003 320.62C418.037 320.893 417.069 321.157 416.1 321.414C403.882 324.642 391.331 326.448 378.698 326.797C378.039 326.814 377.391 326.826 376.766 326.837C376.545 326.843 376.329 326.848 376.113 326.848C375.403 326.854 374.698 326.86 373.988 326.86C360.675 326.869 347.41 325.264 334.484 322.078C333.189 321.76 331.899 321.426 330.615 321.074C323.853 319.231 317.217 316.951 310.75 314.251C307.341 312.833 303.993 311.303 300.706 309.662C299.962 309.288 299.218 308.913 298.485 308.528C294.719 301.914 292.577 293.871 292.531 284.206C295.139 267.553 449.707 242.126 455.468 256.487Z" fill="#2F2E41"/>
<path opacity="0.2" d="M455.463 260.555C455.552 259.085 455.65 257.566 455.765 255.984C450.005 241.622 295.436 267.05 292.829 283.703C292.836 285.23 292.901 286.711 293.011 288.158C299.326 271.721 446.168 247.554 455.463 260.555Z" fill="black"/>
<path d="M288.687 257.608L301.375 251.274L290.802 222.772L288.016 208.398C287.654 206.53 286.807 204.79 285.561 203.352C284.314 201.913 282.711 200.827 280.913 200.201C279.114 199.574 277.182 199.43 275.31 199.783C273.438 200.136 271.691 200.973 270.245 202.211C268.101 204.045 266.756 206.64 266.491 209.446C266.227 212.252 267.065 215.051 268.829 217.252L279.172 230.161L288.687 257.608Z" fill="#FFB6B6"/>
<path d="M301.375 245.996L284.458 254.441L297.296 294.603C298.218 297.488 299.871 300.085 302.094 302.144C304.317 304.202 307.035 305.653 309.985 306.354C313.622 307.218 317.44 306.904 320.886 305.456C324.332 304.008 327.227 301.502 329.15 298.301L363.192 240.042C365.605 236.028 366.349 231.23 365.267 226.675C364.185 222.12 361.361 218.168 357.4 215.663C355.27 214.316 352.879 213.431 350.384 213.068C347.888 212.704 345.344 212.869 342.917 213.552C340.489 214.235 338.233 215.421 336.295 217.032C334.357 218.643 332.781 220.643 331.668 222.903L310.89 267.108L301.375 245.996Z" fill="#3F3D56"/>
<path d="M119.017 194.825C136.566 194.825 150.792 180.621 150.792 163.099C150.792 145.577 136.566 131.373 119.017 131.373C101.468 131.373 87.2413 145.577 87.2413 163.099C87.2413 180.621 101.468 194.825 119.017 194.825Z" fill="#A0616A"/>
<path d="M87.6229 141.236C90.2065 137.759 93.9199 135.287 96.7603 132.016C98.3188 130.221 99.6129 128.188 101.365 126.581C104.62 123.596 109.173 122.373 113.59 122.22C118.431 122.096 123.234 123.112 127.609 125.185C131.984 127.258 135.809 130.33 138.774 134.153C141.083 132.802 143.392 131.45 145.701 130.098C146.613 132.496 147.525 134.893 148.437 137.29C149.186 136.64 150.141 136.276 151.133 136.263C152.124 136.249 153.089 136.586 153.856 137.214C154.622 137.843 155.141 138.722 155.321 139.696C155.5 140.67 155.328 141.676 154.836 142.536C155.385 140.84 157.903 140.481 159.291 141.601C160.679 142.721 161.051 144.713 160.824 146.481C160.54 148.42 159.682 150.23 158.359 151.678C157.036 153.126 155.31 154.146 153.403 154.607C150.389 155.277 146.882 154.573 144.471 156.497C142.537 158.039 141.954 160.848 139.981 162.34C137.549 164.177 134.113 163.328 131.09 163.734C125.803 164.444 121.616 169.844 122.251 175.133C121.773 173.464 121.27 171.747 120.184 170.391C119.098 169.036 117.27 168.119 115.604 168.617C112.851 169.441 112.401 173.188 113.068 175.978C114.838 183.38 121.544 195.345 121.544 195.345C112.836 198.774 102.462 195.531 95.7442 189.024C89.0259 182.517 85.5269 173.302 84.0027 164.081C82.7103 156.262 82.8934 147.601 87.6229 141.236Z" fill="#2F2E41"/>
<path d="M409.392 183.876C415.438 170.037 412.013 157.303 404.643 150.547V150.541C401.746 144.058 397.895 139.056 393.486 137.882C391.356 136.515 389.288 134.909 386.993 134.093C385.924 133.693 384.785 133.514 383.645 133.565C382.504 133.617 381.386 133.899 380.358 134.393L379.188 134.081C378.194 131.546 377.029 131.495 375.734 133.163C370.746 130.843 366.253 129.805 362.253 129.805C349.21 129.805 341.496 140.831 339.451 154.16L350.352 157.059L354.141 151.029L352.392 157.603L358.407 159.197C367.565 171.102 356.607 198.566 342.717 213.847C346.023 212.933 349.316 212.162 352.596 211.532L364.514 194.085L357.129 209.967C360.964 209.405 365.855 209.944 371.201 211.028C373.001 208.679 373.95 205.548 373.018 202.758C374.542 205.701 375.592 208.865 376.132 212.134C387.414 214.885 402.803 216.297 411.097 217.34C417.798 215.156 417.816 190.489 409.392 183.876Z" fill="#2F2E41"/>
<path d="M413.325 136.803C417.753 146.702 408.819 150.96 400.634 150.84C393.238 150.732 386.952 145.544 386.575 138.168C386.394 134.626 387.629 131.158 390.009 128.525C392.389 125.893 395.719 124.312 399.266 124.131C406.653 123.754 410.309 130.06 413.325 136.803Z" fill="#2F2E41"/>
<path d="M207.907 297.955L200.613 285.808L224.865 267.437L234.948 256.807C236.258 255.426 237.908 254.413 239.733 253.868C241.559 253.323 243.495 253.266 245.349 253.703C247.203 254.139 248.91 255.054 250.3 256.356C251.689 257.657 252.712 259.3 253.266 261.12C254.087 263.817 253.826 266.727 252.539 269.236C251.252 271.744 249.039 273.656 246.368 274.566L230.699 279.907L207.907 297.955Z" fill="#A0616A"/>
<path d="M213.178 297.554L201.822 307.003L198.76 309.55L198.403 309.845C197.613 310.236 196.818 310.622 196.017 311.002C193.619 312.142 191.192 313.225 188.734 314.252C182.267 316.953 175.631 319.232 168.868 321.075C167.584 321.427 166.295 321.762 165 322.079C164.21 322.272 163.415 322.465 162.619 322.647C162.119 322.766 161.614 322.879 161.108 322.987C160.495 323.123 159.881 323.259 159.268 323.384C158.626 323.52 157.984 323.65 157.342 323.775C155.615 322.134 154.239 320.16 153.3 317.972C152.36 315.784 151.876 313.428 151.877 311.047C151.877 310.894 151.877 310.735 151.883 310.577L153.706 263.879L154.513 243.182C154.637 238.502 156.59 234.055 159.954 230.793C163.318 227.531 167.826 225.711 172.515 225.724C173.061 225.724 173.6 225.752 174.134 225.803C174.521 226.302 174.878 226.818 175.225 227.34C176.168 228.735 177.441 230.942 178.94 233.71C179.559 234.85 180.213 236.086 180.9 237.397C181.315 238.185 184.894 249.336 188.376 260.725L186.842 272.62L184.07 294.06L195.443 286.607L203.453 281.355L204.402 282.937L206.873 287.055L211.645 294.996L213.178 297.554Z" fill="#3F3D56"/>
<path d="M206.952 284.208C206.946 285.172 206.924 286.119 206.873 287.055C206.754 289.636 206.454 292.207 205.975 294.746C205.191 299.011 203.792 303.139 201.822 307.003C201.561 307.519 201.283 308.03 200.999 308.529C200.266 308.915 199.522 309.289 198.777 309.663C198.653 309.726 198.528 309.788 198.403 309.845C195.238 311.416 192.015 312.885 188.734 314.252C182.267 316.953 175.631 319.232 168.868 321.075C167.584 321.427 166.295 321.762 165 322.079C162.472 322.703 159.919 323.269 157.342 323.775C146.852 325.833 136.186 326.866 125.495 326.861C124.785 326.861 124.081 326.855 123.371 326.85C123.155 326.85 122.939 326.844 122.717 326.838C122.093 326.827 121.445 326.816 120.786 326.799C108.152 326.45 95.6017 324.643 83.3837 321.416C82.4123 321.161 81.4447 320.896 80.4808 320.622C71.1929 317.984 62.1588 314.526 53.4857 310.287C43.9534 290.702 45.7428 280.243 44.0159 256.489C47.5607 247.646 107.533 253.891 153.706 263.879C166.238 266.59 177.747 269.579 186.842 272.62C196.238 275.756 203.049 278.944 205.719 281.939C206.343 282.559 206.772 283.347 206.952 284.208Z" fill="#2F2E41"/>
<path opacity="0.2" d="M44.0191 260.555C43.9309 259.085 43.8323 257.566 43.7173 255.984C49.4776 241.622 204.046 267.05 206.654 283.703C206.646 285.23 206.581 286.711 206.471 288.158C200.156 271.721 53.3144 247.554 44.0191 260.555Z" fill="black"/>
</g>
<defs>
<clipPath id="clip0_35_64">
<rect width="500" height="326.861" fill="white"/>
</clipPath>
</defs>
</svg>
